<?xml version="1.0" encoding="UTF-8"?>
<svg id="Layer_1" xmlns="http://www.w3.org/2000/svg" version="1.1" viewBox="0 0 2500 502">
  <!-- Generator: Adobe Illustrator 29.7.1, SVG Export Plug-In . SVG Version: 2.1.1 Build 8)  -->
  <defs>
    <style>
      .st0 {
        fill: #444;
      }

      .st1 {
        fill: #8e8e8e;
      }

      .st2 {
        fill: #636363;
      }
    </style>
  </defs>
  <g>
    <path class="st2" d="M917.59,335.2h-7.27l-30.95,83.05-8.36,1.67v6.1h29.64v-6.1l-11.26-1.82,6.1-18.09h34.37l6.76,18.09-11.48,1.82v6.1h33.2v-6.1l-8.79-1.82-31.97-82.9ZM898.26,392.09l12.13-34.15,1.53-5.74h.65l1.67,5.74,12.64,34.37-28.63-.22Z"/>
    <path class="st2" d="M1007.25,390.93c-2.27-1.5-4.71-2.72-7.27-3.63-2.62-1.02-5.16-1.82-7.27-2.62s-5.16-1.53-7.27-2.33c-2.02-.67-3.88-1.76-5.45-3.2-1.38-1.35-2.13-3.23-2.03-5.16-.25-2.89.85-5.73,2.98-7.7,3.24-1.98,7.04-2.85,10.83-2.47,2.45-.02,4.89.27,7.27.87,1.46.28,2.9.69,4.29,1.24l1.89,11.12h5.74l1.96-17.37c-1.66-.81-3.42-1.4-5.23-1.74-2.37-.73-4.8-1.24-7.27-1.53-2.81-.45-5.65-.66-8.5-.65-4.36-.05-8.69.69-12.79,2.18-3.63,1.23-6.83,3.47-9.23,6.47-2.28,3.19-3.43,7.05-3.27,10.97-.11,3,.49,5.99,1.74,8.72,1.14,2.17,2.82,4.02,4.87,5.38,2.07,1.39,4.32,2.49,6.68,3.27,2.38.87,4.81,1.62,7.27,2.25,2.71.73,5.26,1.53,7.63,2.4,2.18.77,4.16,2.01,5.81,3.63,1.59,1.76,2.41,4.1,2.25,6.47.13,3.13-.87,6.2-2.83,8.65-3.2,2.64-7.36,3.85-11.48,3.34-2.76.05-5.52-.36-8.14-1.24-1.84-.64-3.59-1.5-5.23-2.54l-1.96-10.97h-5.81l-1.53,16.93c1.4.98,2.94,1.74,4.58,2.25,2.56.95,5.18,1.7,7.85,2.25,3.13.65,6.32.97,9.52.94,4.28.04,8.53-.64,12.57-2.03,3.82-1.21,7.17-3.57,9.59-6.76,2.57-3.75,3.82-8.25,3.56-12.79.1-3.09-.55-6.15-1.89-8.94-1.05-2.19-2.56-4.12-4.43-5.67Z"/>
    <path class="st2" d="M1071.77,390.93c-2.27-1.5-4.71-2.72-7.27-3.63-2.54-1.02-5.09-1.82-7.63-2.62s-5.16-1.53-7.27-2.33c-2.01-.69-3.87-1.77-5.45-3.2-1.33-1.38-2.06-3.24-2.03-5.16-.25-2.89.85-5.73,2.98-7.7,3.24-1.98,7.04-2.85,10.83-2.47,2.45-.02,4.89.27,7.27.87,1.47.27,2.9.68,4.29,1.24l1.96,11.12h5.67l1.96-17.37c-1.36-.7-2.8-1.23-4.29-1.6-2.37-.71-4.8-1.22-7.27-1.53-2.81-.45-5.65-.66-8.5-.65-4.42-.12-8.83.57-13.01,2.03-3.62,1.21-6.8,3.46-9.15,6.47-2.34,3.17-3.52,7.04-3.34,10.97-.12,3.01.5,6.01,1.82,8.72,1.12,2.19,2.8,4.04,4.87,5.38,2.06,1.4,4.31,2.51,6.68,3.27,2.38.87,4.81,1.62,7.27,2.25,2.71.73,5.26,1.53,7.63,2.4,2.19.79,4.2,2.03,5.89,3.63,1.55,1.79,2.33,4.11,2.18,6.47.13,3.13-.87,6.2-2.83,8.65-3.2,2.64-7.36,3.85-11.48,3.34-2.76.05-5.51-.37-8.14-1.24-1.84-.64-3.59-1.5-5.23-2.54l-1.96-10.97h-5.81l-1.53,16.93c1.41.97,2.95,1.73,4.58,2.25,2.56.95,5.18,1.7,7.85,2.25,3.13.65,6.32.97,9.52.94,4.3.04,8.57-.65,12.64-2.03,3.8-1.21,7.12-3.57,9.52-6.76,2.59-3.74,3.87-8.24,3.63-12.79.11-3.1-.56-6.17-1.96-8.94-1.18-2.23-2.84-4.17-4.87-5.67Z"/>
    <path class="st2" d="M1141.52,391.15c1.19-3.17,1.67-6.57,1.38-9.95,0-3.17-.44-6.32-1.31-9.37-.85-2.94-2.23-5.69-4.07-8.14-1.91-2.47-4.41-4.42-7.27-5.67-3.29-1.47-6.86-2.19-10.46-2.11-5.75-.11-11.39,1.51-16.2,4.65-4.81,3.28-8.61,7.83-10.97,13.15-2.77,6.27-4.13,13.06-4,19.91-.08,5.89,1,11.75,3.2,17.22,2.13,4.98,5.73,9.19,10.32,12.06,5.12,3.08,11.03,4.6,17,4.36,4.03.1,8.04-.64,11.77-2.18,2.78-1.09,5.39-2.56,7.77-4.36l3.27-2.62-1.96-3.92c-.36,0-1.96.8-4.8,1.82-3.86,1.16-7.89,1.67-11.92,1.53-4.52.23-9-.91-12.86-3.27-3.27-2.08-5.81-5.13-7.27-8.72-1.41-3.81-2.1-7.85-2.03-11.92h34.88c2.17.35,4.34-.62,5.52-2.47ZM1131.2,386.06l-29.72,1.16c-.02-4.26.61-8.5,1.89-12.57.88-3.17,2.77-5.98,5.38-7.99,2.77-1.85,6.04-2.8,9.37-2.69,4.08-.51,8.14,1.11,10.75,4.29,2.04,3.76,2.99,8.01,2.76,12.28.01,1.85-.13,3.7-.44,5.52Z"/>
    <path class="st2" d="M1198.34,390.93c-2.27-1.5-4.71-2.72-7.27-3.63-2.54-1.02-5.16-1.82-7.63-2.62s-5.16-1.53-7.27-2.33c-2.02-.67-3.88-1.76-5.45-3.2-1.38-1.35-2.13-3.23-2.03-5.16-.25-2.89.85-5.73,2.98-7.7,3.24-1.98,7.04-2.85,10.83-2.47,2.45-.02,4.89.27,7.27.87,1.47.27,2.9.68,4.29,1.24l1.89,11.12h5.74l1.96-17.37c-1.39-.69-2.85-1.23-4.36-1.6-2.37-.73-4.8-1.24-7.27-1.53-2.81-.45-5.65-.66-8.5-.65-4.36-.05-8.69.69-12.79,2.18-3.62,1.21-6.8,3.46-9.15,6.47-2.34,3.17-3.52,7.04-3.34,10.97-.12,3.01.5,6.01,1.82,8.72,1.1,2.21,2.78,4.07,4.87,5.38,2.04,1.39,4.27,2.49,6.61,3.27,2.47.87,4.94,1.6,7.27,2.25,2.33.65,5.23,1.53,7.27,2.4,2.18.77,4.16,2.01,5.81,3.63,1.59,1.76,2.41,4.1,2.25,6.47.13,3.13-.87,6.2-2.83,8.65-3.2,2.64-7.36,3.85-11.48,3.34-2.76.05-5.52-.36-8.14-1.24-1.84-.64-3.59-1.5-5.23-2.54l-1.96-10.97h-5.81l-1.53,16.93c1.4.98,2.94,1.74,4.58,2.25,2.56.95,5.18,1.7,7.85,2.25,3.13.65,6.32.97,9.52.94,4.3.04,8.57-.65,12.64-2.03,3.79-1.23,7.11-3.59,9.52-6.76,2.57-3.75,3.82-8.25,3.56-12.79.14-3.09-.51-6.17-1.89-8.94-1.07-2.25-2.64-4.24-4.58-5.81Z"/>
    <path class="st2" d="M1262.86,390.93c-2.27-1.49-4.71-2.71-7.27-3.63-2.62-1.02-5.16-1.82-7.7-2.62s-5.16-1.53-7.27-2.33c-2.01-.69-3.87-1.77-5.45-3.2-1.33-1.38-2.06-3.24-2.03-5.16-.27-2.91.86-5.77,3.05-7.7,3.21-2,6.99-2.87,10.75-2.47,2.45-.02,4.89.27,7.27.87,1.47.27,2.9.68,4.29,1.24l1.96,11.12h5.67l1.96-17.37c-1.36-.7-2.8-1.23-4.29-1.6-2.37-.72-4.8-1.23-7.27-1.53-2.81-.45-5.65-.66-8.5-.65-4.36-.05-8.69.69-12.79,2.18-3.62,1.21-6.8,3.46-9.15,6.47-2.34,3.17-3.52,7.04-3.34,10.97-.12,3.01.5,6.01,1.82,8.72,1.12,2.19,2.8,4.04,4.87,5.38,2.06,1.4,4.31,2.51,6.68,3.27,2.38.87,4.81,1.62,7.27,2.25,2.71.73,5.26,1.53,7.63,2.4,2.19.79,4.2,2.03,5.89,3.63,1.55,1.79,2.33,4.11,2.18,6.47.13,3.13-.87,6.2-2.83,8.65-3.2,2.64-7.36,3.85-11.48,3.34-2.76.05-5.51-.37-8.14-1.24-1.84-.64-3.59-1.5-5.23-2.54l-1.89-10.97h-5.89l-1.53,16.93c1.42.96,2.96,1.71,4.58,2.25,2.56.95,5.18,1.7,7.85,2.25,3.15.65,6.37.97,9.59.94,4.27.04,8.53-.65,12.57-2.03,3.8-1.21,7.12-3.57,9.52-6.76,2.59-3.74,3.87-8.24,3.63-12.79.11-3.1-.56-6.17-1.96-8.94-1.2-2.3-2.92-4.29-5.01-5.81Z"/>
    <path class="st2" d="M1328.47,360.05c-5.07-2.91-10.86-4.35-16.71-4.14-4.6-.1-9.16.9-13.3,2.91-3.87,1.93-7.28,4.65-10.03,7.99-2.74,3.51-4.86,7.47-6.25,11.7-1.47,4.55-2.21,9.31-2.18,14.1-.16,6.33.95,12.63,3.27,18.53,1.93,4.98,5.36,9.25,9.81,12.21,4.92,2.91,10.57,4.34,16.28,4.14,4.87.1,9.71-.87,14.17-2.83,3.92-1.84,7.36-4.58,10.03-7.99,2.77-3.6,4.84-7.69,6.1-12.06,1.35-4.87,2.01-9.91,1.96-14.97.14-6.1-.97-12.15-3.27-17.8-1.95-4.88-5.41-9.01-9.88-11.77ZM1327.74,406.55c-.74,3.6-2.6,6.88-5.3,9.37-2.94,2.33-6.64,3.5-10.39,3.27-4.21.24-8.39-.88-11.92-3.2-2.97-2.33-5.05-5.62-5.89-9.3-1.21-4.75-1.77-9.63-1.67-14.53-.09-5.21.35-10.42,1.31-15.55.62-3.64,2.53-6.94,5.38-9.3,7.07-4.02,15.74-4.02,22.81,0,2.81,2.35,4.75,5.57,5.52,9.15,1.23,5.21,1.79,10.56,1.67,15.91.05,4.77-.46,9.52-1.53,14.17h0Z"/>
    <path class="st2" d="M1390.08,355.91c-2.23.09-4.41.74-6.32,1.89-2.13,1.12-4.14,2.43-6.03,3.92-1.67,1.31-2.76,2.18-3.27,2.69l-2.33-7.77-20.05,3.85v5.74l10.83,1.96v50.21l-9.45,1.89v5.74h33.64v-5.96l-12.79-1.82v-49.41c.93-.39,1.91-.66,2.91-.8,1.09-.1,2.18-.1,3.27,0,.92-.08,1.84-.08,2.76,0l2.91.58,5.81,1.53c1.32-.76,2.4-1.86,3.12-3.2,1.62-2.87,1.42-6.41-.51-9.08-1.13-1.3-2.79-2.02-4.5-1.96Z"/>
    <path class="st2" d="M1412.02,338.4c-.08,2.26.7,4.47,2.18,6.18,1.41,1.61,3.46,2.51,5.59,2.47,2.44.14,4.79-.95,6.25-2.91,1.51-1.87,2.31-4.21,2.25-6.61.15-2.27-.64-4.5-2.18-6.18-3.41-3.05-8.65-2.76-11.7.65,0,0,0,0,0,0-1.57,1.76-2.42,4.04-2.4,6.39Z"/>
    <polygon class="st2" points="1427.06 358.52 1423.72 357.29 1404.54 361.21 1404.54 366.88 1415.65 368.84 1415.65 418.39 1404.39 420.28 1404.39 426.02 1437.89 426.02 1437.89 420.28 1427.06 418.39 1427.06 358.52"/>
    <path class="st2" d="M1498.12,371.89c.03-2.83-.7-5.61-2.11-8.06-1.45-2.45-3.57-4.44-6.1-5.74-3.11-1.55-6.56-2.3-10.03-2.18-2.57.09-5.13.43-7.63,1.02-3.24.76-6.41,1.83-9.45,3.2-2.99,1.31-5.7,3.19-7.99,5.52-1.99,1.91-3.16,4.51-3.27,7.27-.09,1.77.63,3.48,1.96,4.65,1.2,1.32,2.87,2.1,4.65,2.18,1.13.04,2.25-.08,3.34-.36l1.09-.58,2.11-12.79,2.76-.65c1.92-.32,3.87-.46,5.81-.44,2.47-.05,4.93.34,7.27,1.16,1.91.73,3.53,2.09,4.58,3.85,1.15,2.01,1.7,4.3,1.6,6.61v10.46l-12.5,1.82c-4.84.43-9.56,1.71-13.95,3.78-3.39,1.6-6.25,4.12-8.28,7.27-1.82,3.08-2.75,6.6-2.69,10.17,0,2.96.64,5.89,1.89,8.57,1.33,2.69,3.47,4.89,6.1,6.32,3.53,1.69,7.42,2.49,11.33,2.33,2.46,0,4.9-.33,7.27-1.02,2.14-.66,4.21-1.54,6.18-2.62,1.75-.9,3.41-1.97,4.94-3.2h.22c.24,1.57.83,3.06,1.74,4.36,1.34,1.54,3.35,2.32,5.38,2.11,2.22.03,4.44-.19,6.61-.65,1.55-.34,3.08-.78,4.58-1.31l2.18-.87v-5.3l-9.88-1.89.29-44.98ZM1486.71,415.49c-3.97,1.63-8.21,2.54-12.5,2.69-8.43,0-12.64-3.56-12.64-10.61-.12-2.69.85-5.31,2.69-7.27,2.34-2.19,5.19-3.76,8.28-4.58,4.75-1.26,9.62-1.99,14.53-2.18l-.36,21.94Z"/>
    <path class="st2" d="M1600.35,391.15c1.19-3.17,1.67-6.57,1.38-9.95,0-3.17-.44-6.32-1.31-9.37-.85-2.94-2.23-5.69-4.07-8.14-1.92-2.45-4.42-4.4-7.27-5.67-3.29-1.47-6.86-2.19-10.46-2.11-5.75-.12-11.39,1.5-16.2,4.65-4.81,3.28-8.61,7.83-10.97,13.15-2.8,6.25-4.17,13.06-4,19.91-.08,5.89,1,11.75,3.2,17.22,2.01,4.92,5.45,9.12,9.88,12.06,5.12,3.09,11.03,4.61,17,4.36,4.03.1,8.04-.64,11.77-2.18,2.78-1.09,5.39-2.56,7.77-4.36l3.27-2.62-1.96-3.92c-.36,0-1.96.8-4.8,1.82-3.86,1.16-7.89,1.67-11.92,1.53-4.52.23-9-.91-12.86-3.27-3.29-2.06-5.84-5.11-7.27-8.72-1.41-3.81-2.1-7.85-2.03-11.92h34.88c2.31.54,4.71-.45,5.96-2.47ZM1590.03,386.06l-29.72,1.16c-.04-4.26.57-8.5,1.82-12.57,1.78-6.5,7.8-10.92,14.53-10.68,4.08-.51,8.14,1.11,10.75,4.29,2.04,3.76,2.99,8.01,2.76,12.28.11,1.84.06,3.69-.15,5.52h0Z"/>
    <polygon class="st2" points="1707.59 341.74 1717.04 343.92 1717.04 409.17 1716.46 409.17 1714.35 405.03 1669.16 335.86 1648.89 335.86 1648.89 342.03 1657.6 343.92 1657.6 417.96 1648.16 420.14 1648.16 426.02 1676.13 426.02 1676.13 420.14 1666.4 417.96 1666.4 352.71 1666.98 352.71 1668.79 356.49 1714.28 426.02 1725.76 426.02 1725.76 343.92 1735.13 341.74 1735.13 335.86 1707.59 335.86 1707.59 341.74"/>
    <path class="st2" d="M1800.45,391.15c1.19-3.17,1.67-6.57,1.38-9.95,0-3.17-.44-6.32-1.31-9.37-.82-2.93-2.18-5.69-4-8.14-1.91-2.46-4.41-4.41-7.27-5.67-3.26-1.48-6.81-2.2-10.39-2.11-5.75-.13-11.4,1.49-16.2,4.65-4.83,3.27-8.66,7.83-11.04,13.15-2.74,6.27-4.08,13.07-3.92,19.91-.11,5.9.98,11.76,3.2,17.22,1.96,4.95,5.42,9.16,9.88,12.06,5.09,3.08,10.98,4.6,16.93,4.36,4.03.1,8.04-.64,11.77-2.18,2.78-1.09,5.39-2.56,7.77-4.36l3.27-2.62-1.96-3.92c-.36,0-1.96.8-4.8,1.82-3.84,1.16-7.84,1.67-11.84,1.53-4.52.23-9-.91-12.86-3.27-3.16-2.11-5.57-5.16-6.9-8.72-1.43-3.81-2.15-7.85-2.11-11.92h34.95c2.15.36,4.3-.62,5.45-2.47ZM1790.2,386.06l-29.79,1.16c-.02-4.26.61-8.5,1.89-12.57.93-3.17,2.84-5.97,5.45-7.99,2.76-1.88,6.04-2.82,9.37-2.69,4.06-.51,8.1,1.11,10.68,4.29,2.07,3.75,3.03,8.01,2.76,12.28.04,1.85-.09,3.69-.36,5.52h0Z"/>
    <path class="st2" d="M1869.33,354.38c-1.85.02-3.66.47-5.3,1.31-1.58.78-3.09,1.7-4.5,2.76-.73.64-1.51,1.22-2.33,1.74-1.96-1.41-4.15-2.47-6.47-3.12-2.86-.78-5.82-1.17-8.79-1.16-4.71-.07-9.36.98-13.59,3.05-3.86,1.92-7.15,4.83-9.52,8.43-2.36,3.65-3.58,7.93-3.49,12.28.01,2.87.6,5.72,1.74,8.36,1.17,2.86,3.08,5.37,5.52,7.27,2.89,2.15,6.21,3.63,9.74,4.36-1.67,1.1-3.15,2.48-4.36,4.07-1.25,1.57-1.92,3.52-1.89,5.52,0,1.36.29,2.7.87,3.92.42,1.05,1.01,2.04,1.74,2.91l-4.5,2.62c-1.89,1.09-3.68,2.33-5.38,3.71-1.71,1.4-3.17,3.1-4.29,5.01-2.81,5.03-2.01,11.3,1.96,15.48,2.81,2.44,6.18,4.14,9.81,4.94,4.28,1.04,8.67,1.55,13.08,1.53,4.31.03,8.61-.48,12.79-1.53,3.74-.93,7.32-2.42,10.61-4.43,2.97-1.81,5.46-4.3,7.27-7.27,1.81-2.7,2.75-5.9,2.69-9.15.13-2.94-.8-5.83-2.62-8.14-1.95-2.25-4.45-3.96-7.27-4.94-3.51-1.32-7.13-2.29-10.83-2.91l-14.53-2.76v-8.06h1.82c4.44.03,8.83-.91,12.86-2.76,3.79-1.77,7.06-4.47,9.52-7.85,2.47-3.42,3.75-7.55,3.63-11.77-.01-2.46-.35-4.9-1.02-7.27-.68-2.48-1.84-4.8-3.41-6.83,1.06-.13,2.14-.13,3.2,0l3.34.8,5.3,1.45c.36-.51.87-1.24,1.53-2.33.67-1.17.99-2.5.94-3.85.16-1.66-.43-3.31-1.6-4.5-1.29-.77-2.8-1.08-4.29-.87ZM1852.62,421.59c2.95.25,5.74,1.48,7.92,3.49,1.18,1.43,1.83,3.23,1.82,5.09.04,2.41-.88,4.73-2.54,6.47-2.02,1.96-4.53,3.34-7.27,4-3.25.85-6.6,1.27-9.95,1.24-4.74.3-9.49-.5-13.88-2.33-2.84-1.48-4.55-4.5-4.36-7.7.1-2.82,1.12-5.52,2.91-7.7,1.71-2.48,3.91-4.59,6.47-6.18l18.89,3.63ZM1852.62,386.57c-.97,1.97-2.62,3.52-4.65,4.36-2.31.93-4.78,1.38-7.27,1.31-2.66.09-5.31-.38-7.77-1.38-2-.82-3.63-2.34-4.58-4.29-1.06-2.53-1.56-5.25-1.45-7.99-.09-2.87.35-5.72,1.31-8.43.8-2.09,2.35-3.8,4.36-4.8,2.64-1.12,5.49-1.64,8.36-1.53,2.71-.11,5.4.43,7.85,1.6,1.9,1.02,3.39,2.66,4.21,4.65.95,2.45,1.39,5.07,1.31,7.7.14,3.02-.43,6.03-1.67,8.79Z"/>
    <path class="st2" d="M1928.69,360.05c-5.05-2.92-10.81-4.35-16.64-4.14-4.6-.1-9.16.9-13.3,2.91-3.88,1.91-7.3,4.64-10.03,7.99-2.77,3.49-4.89,7.45-6.25,11.7-1.47,4.55-2.21,9.31-2.18,14.1-.16,6.33.95,12.63,3.27,18.53,1.93,4.98,5.36,9.25,9.81,12.21,4.92,2.91,10.57,4.34,16.28,4.14,4.85.11,9.66-.86,14.1-2.83,3.96-1.82,7.42-4.56,10.1-7.99,2.78-3.59,4.82-7.69,6.03-12.06,1.41-4.86,2.09-9.91,2.03-14.97.14-6.1-.97-12.15-3.27-17.8-1.97-4.89-5.46-9.01-9.95-11.77ZM1928.04,406.55c-.77,3.59-2.62,6.87-5.3,9.37-2.97,2.34-6.69,3.5-10.46,3.27-4.19.24-8.34-.88-11.84-3.2-2.97-2.35-5.07-5.62-5.96-9.3-1.17-4.75-1.73-9.64-1.67-14.53-.11-5.22.35-10.43,1.38-15.55.6-3.63,2.48-6.93,5.3-9.3,3.49-2.33,7.66-3.43,11.84-3.12,3.87-.21,7.71.8,10.97,2.91,2.83,2.34,4.8,5.57,5.59,9.15,1.23,5.21,1.79,10.56,1.67,15.91.06,4.84-.45,9.67-1.53,14.39Z"/>
    <path class="st2" d="M1925.78,334.91c-.62-2.42-1.78-4.65-3.41-6.54-.9-1.18-2.24-1.94-3.71-2.11-1.04.08-2.01.51-2.76,1.24-1.12.93-2.15,1.98-3.05,3.12l-15.19,16.78,3.92,4.21,24.2-16.71Z"/>
    <path class="st2" d="M1971.92,366.95c3.26-2.16,7.14-3.2,11.04-2.98,1.99-.06,3.97.19,5.89.73,1.04.21,2.05.58,2.98,1.09l2.11,12.93c.46.27.95.49,1.45.65.84.12,1.7.12,2.54,0,1.31.08,2.61-.2,3.78-.8,1-.57,1.83-1.4,2.4-2.4.51-.99.78-2.08.8-3.2.02-3-.82-5.95-2.4-8.5-1.78-2.77-4.3-4.98-7.27-6.39-3.64-1.77-7.66-2.62-11.7-2.47-4.68-.08-9.3.94-13.51,2.98-3.89,1.96-7.28,4.79-9.88,8.28-2.72,3.65-4.76,7.76-6.03,12.13-1.35,4.72-2.01,9.62-1.96,14.53-.23,6.46,1.07,12.88,3.78,18.75,2.39,4.7,6.17,8.56,10.83,11.04,4.69,2.58,9.98,3.88,15.33,3.78,4.06.12,8.11-.55,11.92-1.96,2.6-.98,5.05-2.32,7.27-4,1.74-1.38,2.76-2.25,3.05-2.54l-1.82-4.14c-1.57.65-3.17,1.2-4.8,1.67-3.49.9-7.08,1.32-10.68,1.24-4.25.14-8.48-.7-12.35-2.47-3.29-1.79-5.86-4.66-7.27-8.14-1.78-4.83-2.59-9.97-2.4-15.11-.13-5.28.4-10.55,1.6-15.69.71-3.51,2.58-6.69,5.3-9.01Z"/>
    <polygon class="st2" points="2038.84 358.52 2035.5 357.29 2016.32 361.21 2016.32 366.88 2027.43 368.84 2027.43 418.39 2016.17 420.28 2016.17 426.02 2049.74 426.02 2049.74 420.28 2038.84 418.39 2038.84 358.52"/>
    <path class="st2" d="M2031.65,347.04c2.44.14,4.79-.95,6.25-2.91,1.46-1.89,2.23-4.22,2.18-6.61.17-2.26-.59-4.49-2.11-6.18-3.43-3.06-8.7-2.77-11.77.65-1.55,1.76-2.38,4.05-2.33,6.39-.11,2.25.65,4.46,2.11,6.18,1.43,1.63,3.5,2.53,5.67,2.47Z"/>
    <path class="st2" d="M2107.72,360.05c-5.07-2.91-10.86-4.35-16.71-4.14-4.6-.1-9.16.9-13.3,2.91-3.87,1.93-7.28,4.65-10.03,7.99-2.74,3.51-4.86,7.47-6.25,11.7-1.45,4.56-2.16,9.31-2.11,14.1-.16,6.33.95,12.63,3.27,18.53,1.93,4.98,5.36,9.25,9.81,12.21,4.91,2.92,10.56,4.35,16.28,4.14,4.85.1,9.66-.87,14.1-2.83,3.94-1.84,7.4-4.58,10.1-7.99,2.75-3.61,4.79-7.7,6.03-12.06,1.37-4.87,2.06-9.91,2.03-14.97.14-6.1-.97-12.15-3.27-17.8-1.97-4.89-5.46-9.01-9.95-11.77ZM2106.99,406.55c-.74,3.6-2.6,6.88-5.3,9.37-2.94,2.33-6.64,3.5-10.39,3.27-4.2.26-8.38-.84-11.92-3.12-2.97-2.33-5.05-5.62-5.89-9.3-1.17-4.75-1.73-9.64-1.67-14.53-.09-5.21.35-10.42,1.31-15.55.62-3.64,2.53-6.94,5.38-9.3,3.47-2.32,7.61-3.42,11.77-3.12,3.9-.22,7.76.8,11.04,2.91,2.81,2.35,4.75,5.57,5.52,9.15,1.26,5.21,1.82,10.56,1.67,15.91.06,4.81-.45,9.62-1.53,14.31Z"/>
    <path class="st2" d="M2180.3,396.74c-1.26-2.32-3.05-4.31-5.23-5.81-2.27-1.49-4.71-2.71-7.27-3.63-2.62-1.02-5.16-1.82-7.7-2.62-2.54-.8-5.16-1.53-7.27-2.33-2.01-.7-3.86-1.79-5.45-3.2-1.31-1.39-2.01-3.25-1.96-5.16-.29-2.89.82-5.75,2.98-7.7,3.21-1.99,6.99-2.85,10.75-2.47,2.45-.01,4.89.28,7.27.87,1.44.27,2.85.69,4.21,1.24l1.96,11.12h5.67l1.96-17.37c-1.36-.71-2.8-1.24-4.29-1.6-2.37-.72-4.8-1.23-7.27-1.53-2.81-.45-5.65-.66-8.5-.65-4.36-.05-8.69.69-12.79,2.18-3.6,1.25-6.77,3.49-9.15,6.47-2.34,3.17-3.52,7.04-3.34,10.97-.12,3.01.5,6.01,1.82,8.72,1.12,2.19,2.8,4.05,4.87,5.38,2.07,1.39,4.32,2.49,6.68,3.27,2.38.87,4.81,1.62,7.27,2.25,2.71.73,5.26,1.53,7.63,2.4,2.2.77,4.21,2.01,5.89,3.63,1.55,1.79,2.33,4.11,2.18,6.47.13,3.13-.87,6.2-2.83,8.65-3.2,2.64-7.36,3.85-11.48,3.34-4.74.12-9.4-1.19-13.37-3.78l-1.89-10.97h-5.89l-1.53,16.93c1.42.96,2.96,1.71,4.58,2.25,2.58.96,5.22,1.71,7.92,2.25,3.13.66,6.32.97,9.52.94,4.28.04,8.53-.65,12.57-2.03,3.8-1.21,7.12-3.57,9.52-6.76,2.59-3.74,3.87-8.24,3.63-12.79.2-3.07-.37-6.15-1.67-8.94Z"/>
    <path class="st2" d="M1174.8,63.32h-91.69v15.48l24.56,5.74v153.89l-24.56,5.74v15.48h86.32c19.33.54,38.49-3.68,55.8-12.28,15.13-7.73,27.59-19.83,35.75-34.73,8.6-16.77,12.84-35.43,12.35-54.28,0-31.68-8.67-55.39-26.01-71.13-17.34-15.74-41.51-23.71-72.51-23.9ZM1227.54,195.84c-1.64,9.27-5.48,18.02-11.19,25.5-5.5,6.47-12.78,11.19-20.93,13.59-10.43,3-21.26,4.39-32.11,4.14-3.41,0-6.9,0-10.32-.51s-6.18-.65-8.14-1.02V85.48c2.98-.44,6.18-.73,9.52-.94,3.34-.22,7.27,0,11.04,0,8.94-.08,17.85.99,26.52,3.2,7.72,1.95,14.84,5.8,20.71,11.19,6.28,6.01,10.92,13.51,13.51,21.8,3.46,11.59,5.05,23.66,4.72,35.75.12,13.21-1.08,26.4-3.56,39.38h.22Z"/>
    <path class="st2" d="M1324.83,254.91c11.8,5.66,24.77,8.43,37.85,8.06,9.26.22,18.46-1.39,27.1-4.72,6.43-2.48,12.51-5.78,18.09-9.81,4.43-3.41,7.27-5.59,7.85-6.39l-5.45-11.19c-3.4,1.54-6.89,2.85-10.46,3.92-8.89,2.58-18.14,3.71-27.39,3.34-8.84.46-17.64-1.52-25.43-5.74-6.24-3.78-10.96-9.61-13.37-16.49-2.75-8.04-4.08-16.5-3.92-24.99h74.84c4.26.35,8.39-1.55,10.9-5.01,2.84-6.64,3.99-13.88,3.34-21.07-.01-7.06-.94-14.1-2.76-20.93-1.81-6.81-4.89-13.22-9.08-18.89-4.49-6.02-10.37-10.86-17.15-14.1-8.51-3.83-17.78-5.64-27.1-5.3-26.25-.61-50.35,14.44-61.32,38.29-6.24,13.67-9.3,28.57-8.94,43.59-.53,14.6,2.33,29.12,8.36,42.43,5.04,10.76,13.49,19.55,24.05,24.99ZM1332.9,149.71c1.48-6.03,4.75-11.48,9.37-15.62,5.04-3.95,11.34-5.94,17.73-5.59,9.66,0,16.06,2.62,19.04,7.85,3.5,7.36,5.08,15.48,4.58,23.61,0,3.56-.31,7.11-.94,10.61l-52.97,2.47c.04-7.88,1.12-15.72,3.2-23.32Z"/>
    <path class="st2" d="M1547.96,194.17c-2.81-5.28-6.81-9.84-11.7-13.3-4.93-3.49-10.34-6.26-16.06-8.21-5.81-1.96-11.48-3.78-16.93-5.45l-15.04-5.09c-4.06-1.39-7.81-3.56-11.04-6.39-2.8-2.57-4.34-6.23-4.21-10.03-.26-5.02,1.74-9.9,5.45-13.3,6.33-3.94,13.8-5.66,21.22-4.87,4.28,0,8.54.47,12.72,1.38,3.12.64,6.17,1.62,9.08,2.91l5.45,22.38h16.64l3.05-41.49c-1.82-.58-5.01-1.45-9.66-2.54-5.35-1.29-10.75-2.31-16.2-3.05-6.28-.94-12.62-1.4-18.96-1.38-10.46-.18-20.87,1.52-30.73,5.01-8.38,2.9-15.71,8.2-21.07,15.26-5.16,7.69-7.7,16.84-7.27,26.08-.29,7,1.16,13.97,4.21,20.27,2.61,5.05,6.49,9.34,11.26,12.42,4.79,3.05,9.94,5.49,15.33,7.27,5.52,1.96,11.04,3.63,16.49,5.01,5.45,1.38,10.9,2.98,15.77,4.72,4.38,1.42,8.42,3.75,11.84,6.83,3.14,3.2,4.78,7.58,4.5,12.06.35,6.04-1.65,11.98-5.59,16.57-3.71,3.92-11.19,5.89-22.23,5.89-5.45.18-10.88-.81-15.91-2.91-3.35-1.35-6.57-3.03-9.59-5.01l-6.03-24.19h-16.93l-2.47,41.49c3.48,1.83,7.13,3.31,10.9,4.43,6,1.84,12.12,3.3,18.31,4.36,7.2,1.24,14.49,1.85,21.8,1.82,9.5.03,18.94-1.44,27.97-4.36,8.51-2.65,16.08-7.7,21.8-14.53,6.08-8.42,9.06-18.69,8.43-29.06.21-7.27-1.36-14.48-4.58-21Z"/>
    <polygon class="st2" points="1692.55 212.99 1673.81 212.99 1668.36 239 1613.21 239 1613.21 236.02 1690.45 129.36 1690.45 109.38 1573.25 109.38 1575.36 153.34 1594.17 153.34 1599.33 130.31 1647.43 130.31 1647.43 133.36 1569.91 241.18 1569.91 259.64 1694.08 259.64 1692.55 212.99"/>
    <path class="st2" d="M1832.42,238.57c5.87-8.06,10.19-17.16,12.72-26.81,2.73-10.36,4.1-21.04,4.07-31.75.21-13.34-2.26-26.58-7.27-38.94-4.36-10.76-11.98-19.89-21.8-26.08-11.66-6.64-24.96-9.83-38.36-9.23-11.4-.26-22.72,2.02-33.13,6.68-9.01,4.14-16.94,10.31-23.18,18.02-5.93,7.78-10.34,16.6-13.01,26.01-2.92,9.88-4.38,20.14-4.36,30.44-.22,13.98,2.24,27.86,7.27,40.91,4.15,10.96,11.81,20.24,21.8,26.37,12.01,6.53,25.58,9.67,39.24,9.08,11.6.3,23.13-1.93,33.79-6.54,8.81-4.1,16.46-10.35,22.23-18.16ZM1809.68,213.57c-.92,7.64-3.96,14.86-8.79,20.85-5.22,5.23-12.48,7.88-19.84,7.27-8.16.59-16.27-1.73-22.89-6.54-5.56-5.06-9.24-11.84-10.46-19.25-1.98-10.37-2.88-20.91-2.69-31.46-.19-10.76.61-21.51,2.4-32.11.99-7.17,4.49-13.77,9.88-18.6,6.45-4.62,14.32-6.83,22.23-6.25,7.15-.48,14.23,1.61,19.98,5.89,5.2,4.94,8.62,11.45,9.74,18.53,2.02,10.73,2.92,21.64,2.69,32.55.08,9.76-.67,19.51-2.25,29.14Z"/>
    <path class="st2" d="M1971.85,244.02c6.14-8.4,9.15-18.68,8.5-29.06.27-7.23-1.23-14.41-4.36-20.93-2.81-5.28-6.81-9.84-11.7-13.3-4.94-3.48-10.35-6.24-16.06-8.21-5.81-1.96-11.48-3.78-16.93-5.45l-15.04-5.09c-4.06-1.39-7.81-3.56-11.04-6.39-2.8-2.57-4.34-6.23-4.21-10.03-.13-4.87,1.86-9.56,5.45-12.86,6.33-3.94,13.8-5.66,21.22-4.87,4.28,0,8.54.47,12.72,1.38,3.12.64,6.17,1.62,9.08,2.91l5.45,22.38h16.64l3.05-41.49c-1.82-.58-5.09-1.45-9.66-2.54-5.37-1.3-10.8-2.31-16.28-3.05-6.25-.94-12.57-1.4-18.89-1.38-10.46-.19-20.87,1.51-30.73,5.01-8.39,2.88-15.72,8.19-21.07,15.26-5.19,7.67-7.74,16.83-7.27,26.08-.29,7,1.16,13.97,4.21,20.27,2.59,5.04,6.44,9.33,11.19,12.42,4.78,3.07,9.93,5.51,15.33,7.27,5.52,1.96,11.04,3.63,16.49,5.01,5.45,1.38,10.9,2.98,15.77,4.72,4.38,1.42,8.42,3.75,11.84,6.83,3.14,3.2,4.78,7.58,4.5,12.06.35,6.04-1.65,11.98-5.59,16.57-6.41,4.74-14.39,6.84-22.31,5.89-5.43.17-10.83-.82-15.84-2.91-3.35-1.35-6.57-3.03-9.59-5.01l-6.03-24.19h-17l-2.4,41.49c3.48,1.83,7.13,3.31,10.9,4.43,6,1.85,12.12,3.3,18.31,4.36,7.2,1.24,14.49,1.85,21.8,1.82,9.52.03,18.98-1.44,28.05-4.36,8.48-2.81,15.96-8.04,21.51-15.04Z"/>
  </g>
  <g>
    <path class="st2" d="M477.98,215.16c6.49-18.86,14.43-37.19,23.73-54.83-13.38,4.8-26.44,10.46-39.09,16.96l-2.56,4.43c-27.5,46.8-45.94,98.37-54.35,152,16.08,11.36,34.18,19.54,53.33,24.11-4.8-41.12,1.07-91.36,18.93-142.66Z"/>
    <path class="st2" d="M712.64,22.26c-54.83-31.36-140.26,10.67-209.11,96,9.01-1.49,18.29-2.72,27.73-3.68,37.33-48,82.02-73.28,118.66-60.64,26.67,9.12,43.95,36.16,51.63,73.28,19.99,5.31,39.45,12.45,58.13,21.33,3.84-58.72-11.68-105.92-47.04-126.29Z"/>
    <path class="st2" d="M685.23,286.84c-6.75,19.59-15.06,38.6-24.85,56.85,13.28-4.75,26.24-10.33,38.83-16.69,1.28-2.13,2.51-4.32,3.79-6.51,27.24-46.43,45.6-97.52,54.13-150.66-15.97-11.23-33.92-19.36-52.91-23.95,4.43,40.64-1.49,90.29-18.99,140.96Z"/>
    <path class="st2" d="M513.39,448.33c-26.03-9.01-43.47-35.41-51.31-71.73-20.18-5.25-39.83-12.39-58.67-21.33-3.73,58.08,11.84,104.64,47.15,124.85,54.56,30.77,139.41-10.45,207.89-94.56-9.01,1.49-18.24,2.67-27.63,3.63-37.07,47.2-81.22,71.57-117.44,59.15Z"/>
    <path class="st1" d="M601.93,359.53c-19.97,3.79-40.21,6-60.53,6.61,10.65,9.2,21.87,17.72,33.6,25.49h6.51c53.68.62,107.02-8.75,157.28-27.63,1.87-19.51.06-39.19-5.33-58.03-32.8,24.05-78.88,43.57-131.52,53.55Z"/>
    <path class="st1" d="M376.65,290.47c-5.33-27.47,9.65-56.21,38.24-81.33-5.23-20.04-8.59-40.51-10.03-61.17-53.44,25.6-86.88,62.61-86.88,103.78,0,62.88,78.24,116.1,185.81,133.7-5.65-7.09-11.25-14.51-16.69-22.19-59.89-8.59-103.41-34.88-110.45-72.8Z"/>
    <path class="st1" d="M561.13,143.91c20.5-3.89,41.28-6.11,62.13-6.67-10.46-9.15-21.49-17.62-33.01-25.39h-8.75c-53.74-.6-107.12,8.79-157.44,27.68-1.65,19.43.25,39,5.6,57.76,33.01-24,78.98-43.41,131.46-53.39Z"/>
    <path class="st1" d="M660.54,118.2c5.65,7.09,11.15,14.51,16.53,22.13,59.31,8.75,102.34,34.93,109.49,72.64,5.33,27.36-9.55,56.05-37.92,81.12,5.18,20.09,8.44,40.63,9.76,61.33,53.33-25.6,86.66-62.56,86.66-103.68,0-62.67-77.6-115.73-184.53-133.54Z"/>
    <path class="st0" d="M534.35,83.59c14.69-14.77,30.76-28.09,48-39.79-47.25-32-94.5-42.67-129.65-22.83-55.2,30.93-63.25,126.08-25.33,229.33,3.31-8.69,6.93-17.49,10.67-26.29-21.76-56.91-20.16-108.16,9.6-133.01,20.85-17.49,52-18.99,86.72-7.41Z"/>
    <path class="st0" d="M665.66,180.6c12.81,15.25,24.42,31.48,34.72,48.53,2.58-14.37,4.22-28.89,4.91-43.47l-1.65-2.99c-26.17-48.16-61.31-90.89-103.52-125.86-18.05,7.99-34.36,19.44-48,33.71,37.87,16.85,78.34,48,113.54,90.08Z"/>
    <path class="st0" d="M735.52,251.75c-3.31,8.69-6.93,17.49-10.67,26.29,21.87,56.85,20.32,108.1-9.44,132.96-20.85,17.49-52,18.99-86.66,7.41-14.7,14.76-30.77,28.08-48,39.79,47.25,32,94.5,42.67,129.6,22.83,55.04-30.93,63.09-126.08,25.17-229.27Z"/>
    <path class="st0" d="M497.39,321.4c-12.81-15.25-24.42-31.48-34.72-48.53-2.6,14.35-4.25,28.85-4.96,43.41.59,1.01,1.12,2.03,1.65,3.04,26.21,48.14,61.34,90.86,103.52,125.86,18.06-7.96,34.38-19.42,48-33.71-37.71-16.85-78.29-48-113.49-90.08Z"/>
  </g>
</svg>