<?xml version="1.0" encoding="UTF-8"?>
<svg id="Layer_1" xmlns="http://www.w3.org/2000/svg" version="1.1" viewBox="0 0 2500 502">
  <!-- Generator: Adobe Illustrator 29.7.1, SVG Export Plug-In . SVG Version: 2.1.1 Build 8)  -->
  <defs>
    <style>
      .st0 {
        fill: #444;
      }

      .st1 {
        fill: #8e8e8e;
      }

      .st2 {
        fill: #636363;
      }

      .st3 {
        display: none;
      }
    </style>
  </defs>
  <g id="Editble" class="st3">
    <path d="M1.54-2602.45h125.77c80.25,0,146.6,47.07,146.6,152.78v22.38c0,106.48-61.73,154.32-144.29,154.32H1.54v-329.48ZM72.53-2543.04v209.88h54.01c45.52,0,76.39-30.09,76.39-96.45v-16.98c0-66.36-31.64-96.45-78.7-96.45h-51.7ZM311.73-2539.18h56.33l8.49,61.73c10.8-42.44,37.81-64.04,87.19-64.04h16.98v70.99h-28.55c-57.1,0-70.99,20.06-70.99,76.39v121.91h-69.44v-266.98h0ZM496.14-2400.29v-7.72c0-89.51,57.1-138.12,135.03-138.12s135.03,49.38,135.03,138.12v7.72c0,87.96-54.01,135.03-135.03,135.03-86.42,0-135.03-47.07-135.03-135.03ZM695.22-2401.06v-6.17c0-50.15-24.69-79.48-64.04-79.48s-64.81,27.01-64.81,79.48v6.17c0,47.84,24.69,74.85,64.04,74.85s64.81-26.23,64.81-74.85ZM802.47-2539.18h58.64l6.94,50.93c14.66-33.95,43.98-57.1,87.96-57.1,67.9,0,112.65,49.38,112.65,138.89v7.72c0,87.96-49.38,133.49-112.65,133.49-42.44,0-70.99-19.29-84.88-50.15v135.03h-68.67v-358.8ZM997.69-2400.29v-6.17c0-53.24-27.01-79.48-64.04-79.48s-64.81,29.32-64.81,79.48v5.4c0,47.07,24.69,77.16,63.27,77.16,40.12-1.54,65.59-27.78,65.59-76.39h0ZM1170.52-2320.82l-5.4,48.61h-60.19v-356.48h67.9v137.35c14.66-34.72,44.75-54.01,86.42-54.01,63.27.77,110.34,44.75,110.34,133.49v7.72c0,88.73-44.75,138.89-112.65,138.89-43.21,0-72.53-21.6-86.42-55.56ZM1300.15-2404.15v-6.17c0-49.38-27.01-75.62-64.04-75.62s-64.81,30.86-64.81,77.16v5.4c0,50.15,25.46,78.7,64.04,78.7,40.12-.77,64.81-27.01,64.81-79.48h0ZM1401.23-2400.29v-7.72c0-89.51,57.1-138.12,135.03-138.12s135.03,49.38,135.03,138.12v7.72c0,87.96-54.78,135.03-135.03,135.03-86.42,0-135.03-47.07-135.03-135.03ZM1600.31-2401.06v-6.17c0-50.15-24.69-79.48-64.04-79.48s-64.81,27.01-64.81,79.48v6.17c0,47.84,24.69,74.85,64.04,74.85s64.81-26.23,64.81-74.85ZM1761.57-2411.09l-93.36-128.86h80.25l54.01,80.25,54.78-80.25h79.48l-94.91,128.09,100.31,138.89h-78.7l-61.73-88.73-59.41,88.73h-81.79l101.08-138.12Z"/>
  </g>
  <g>
    <polygon class="st2" points="398.92 -2374.72 382.07 -2374.72 318.22 -2619 262.35 -2619 340.08 -2325.33 440.91 -2325.33 518.64 -2619 462.77 -2619 398.92 -2374.72"/>
    <path class="st2" d="M685.57-2626.78c-84.03,0-152.39,68.36-152.39,152.39,0,43.89,15.62,83.97,43.98,112.85,28.2,28.72,67.1,44.53,109.52,44.53,30.42,0,60.63-9.09,85.05-25.61,26.77-18.1,45.95-44.33,55.46-75.85l2.05-6.78h-53.85l-1.37,3.17c-15.98,36.93-55.38,53.46-87.33,53.46-55.07,0-93.5-35.98-99.22-92.18h245.5v-5.26c0-43.9-14.4-84.28-40.54-113.7-26.94-30.32-64.89-47.02-106.85-47.02ZM685.57-2575.16c44.85,0,75.21,23.4,86.12,66.09h-179.67c12.88-40.95,48.15-66.09,93.55-66.09Z"/>
    <path class="st2" d="M937.33-2593.75v-25.25h-53.83v293.68h53.83v-203.41c15.09-20.01,47.08-40.88,93.01-40.88h5.26v-57.16h-5.26c-42.03,0-72.78,16.52-93.01,33.03Z"/>
    <polygon class="st2" points="1183.55 -2698.95 1129.72 -2698.95 1129.72 -2619 1070.31 -2619 1070.31 -2569.61 1129.72 -2569.61 1129.72 -2325.33 1183.55 -2325.33 1183.55 -2569.61 1243.51 -2569.61 1243.51 -2619 1183.55 -2619 1183.55 -2698.95"/>
    <polygon class="st2" points="1551.14 -2619 1491.33 -2619 1428.04 -2504.08 1407.11 -2504.08 1346.04 -2619 1285.74 -2619 1360.81 -2480.41 1282.11 -2325.33 1341.69 -2325.33 1407.76 -2457.46 1428.58 -2457.46 1500.76 -2325.33 1560.56 -2325.33 1474.37 -2481.04 1551.14 -2619"/>
    <path class="st2" d="M1810.75-2583.44c-25.47-28.06-58.8-43.33-95.23-43.33-39.35,0-76.39,15.98-104.28,44.99-28.16,29.29-43.66,68.61-43.66,110.73s15.51,80.5,43.68,109.5c27.91,28.73,64.94,44.55,104.27,44.55,36.5,0,69.83-14.95,95.23-42.42v71.02c0,16.63-7.9,24.72-24.16,24.72h-172.38v49.39h169.6c50.58,0,80.77-26.87,80.77-71.89v-332.83h-53.83v35.56ZM1810.75-2516.32v90.55c-19.3,34.76-56.54,57.15-95.23,57.15-53.02,0-93.01-44.04-93.01-102.44s39.98-104.11,93.01-104.11c38.81,0,74.32,21.97,95.23,58.85Z"/>
    <path class="st2" d="M2076.94-2626.78c-43.59,0-84.17,16-114.28,45.06-29.95,28.91-46.44,67.61-46.44,109,0,87.32,70.6,155.72,160.72,155.72s160.72-68.4,160.72-155.72-70.6-154.06-160.72-154.06ZM2182.71-2472.72c0,59.35-45.47,104.11-105.77,104.11s-105.77-44.76-105.77-104.11,45.47-102.44,105.77-102.44,105.77,44.04,105.77,102.44Z"/>
  </g>
  <g>
    <g>
      <path class="st2" d="M1479.96-1604.12v-165.74h37.24v165.74h-37.24ZM1512.66-1738.98v-30.88h66.74v30.88h-66.74ZM1512.66-1670.87v-30.87h64.03v30.87h-64.03Z"/>
      <path class="st2" d="M1603.47-1604.12l54.72-165.74h60.16l56.77,165.74h-38.6l-45.86-140.09,11.8,4.77h-29.29l12.26-4.77-44.73,140.09h-37.23ZM1645.02-1645.21l11.35-30.88h64.93l11.58,30.88h-87.86Z"/>
      <path class="st2" d="M1819.39-1604.12v-167.1h37.24v167.1h-37.24ZM1846.64-1657.25v-29.29h40.87c5.45,0,10.17-1.09,14.19-3.3,4.01-2.19,7.11-5.29,9.31-9.3s3.29-8.66,3.29-13.96-1.09-9.95-3.29-13.96-5.3-7.11-9.31-9.31c-4.02-2.19-8.74-3.3-14.19-3.3h-40.87v-31.56h37.91c13.77,0,25.73,2.08,35.88,6.24,10.14,4.17,17.94,10.33,23.38,18.5,5.45,8.18,8.18,18.47,8.18,30.88v3.63c0,12.26-2.76,22.45-8.28,30.54-5.53,8.09-13.33,14.15-23.39,18.16-10.07,4.01-21.99,6.01-35.76,6.01h-37.91ZM1919.97-1604.12l-48.59-71.29h40.87l50.86,71.29h-43.14Z"/>
      <path class="st2" d="M2007.83-1604.12v-165.74h51.31l37.92,93.09h4.31l37.46-93.09h52.22v165.74h-36.78v-141.45l5.22.46-43.82,107.39h-35.42l-44.05-107.39,5.68-.46v141.45h-34.06Z"/>
      <path class="st2" d="M2235.32-1604.12l54.72-165.74h60.16l56.77,165.74h-38.6l-45.86-140.09,11.8,4.77h-29.29l12.26-4.77-44.73,140.09h-37.23ZM2276.87-1645.21l11.35-30.88h64.93l11.58,30.88h-87.86Z"/>
    </g>
    <g>
      <path class="st2" d="M241.75-1700.06v-170h60.08l34.93,89.66h4.66l34.7-89.66h61.25v170h-42.85v-145.09l6.75.47-43.78,110.38h-39.36l-44.01-110.38,7.22-.47v145.09h-39.59Z"/>
      <path class="st2" d="M471.84-1700.06v-170h41.92v170h-41.92ZM503.28-1882.64l28.88-42.85h44.71l-33.07,42.85h-40.52ZM509.1-1834.67v-35.39h70.33v35.39h-70.33ZM509.1-1768.76v-35.4h66.84v35.4h-66.84ZM509.1-1700.06v-35.4h71.73v35.4h-71.73Z"/>
      <path class="st2" d="M597.13-1832.34v-37.72h136.47v37.72h-136.47ZM643.71-1700.06v-136.94h43.32v136.94h-43.32Z"/>
      <path class="st2" d="M834.21-1695.4c-15.52,0-29.03-2.67-40.52-8.03-11.49-5.35-21.04-12.41-28.65-21.19-7.61-8.77-13.27-18.28-17-28.53-3.72-10.24-5.59-20.18-5.59-29.81v-5.12c0-10.71,1.94-21.23,5.82-31.56,3.88-10.33,9.7-19.68,17.47-28.06,7.76-8.38,17.35-15.06,28.76-20.03,11.41-4.97,24.64-7.45,39.7-7.45s28.06,2.48,39.48,7.45c11.41,4.97,21,11.65,28.76,20.03s13.63,17.74,17.58,28.06c3.96,10.33,5.94,20.84,5.94,31.56v5.12c0,9.63-1.91,19.57-5.71,29.81-3.81,10.25-9.51,19.76-17.12,28.53-7.61,8.78-17.16,15.84-28.65,21.19-11.49,5.36-24.92,8.03-40.29,8.03ZM834.21-1735.92c7.45,0,14.13-1.25,20.03-3.73,5.9-2.48,10.95-5.98,15.14-10.48s7.37-9.74,9.55-15.72c2.17-5.98,3.26-12.46,3.26-19.45,0-7.46-1.13-14.21-3.38-20.27-2.25-6.05-5.47-11.25-9.67-15.6-4.19-4.34-9.24-7.68-15.14-10.01-5.9-2.33-12.5-3.5-19.8-3.5s-14.13,1.17-20.03,3.5c-5.9,2.32-10.95,5.66-15.14,10.01-4.19,4.35-7.38,9.55-9.55,15.6-2.18,6.06-3.26,12.81-3.26,20.27,0,6.99,1.09,13.47,3.26,19.45,2.17,5.98,5.36,11.22,9.55,15.72s9.23,8,15.14,10.48c5.9,2.48,12.57,3.73,20.03,3.73Z"/>
      <path class="st2" d="M952.05-1699.12v-172.33h43.32v172.33h-43.32ZM990.71-1699.12v-40.52h27.95c7.29,0,13.86-1.05,19.68-3.14,5.82-2.1,10.75-5.13,14.79-9.08,4.04-3.96,7.14-8.77,9.32-14.44,2.17-5.66,3.26-12.07,3.26-19.21s-1.09-14.01-3.26-19.68c-2.18-5.66-5.28-10.4-9.32-14.21-4.04-3.8-8.96-6.67-14.79-8.61-5.82-1.94-12.38-2.92-19.68-2.92h-27.95v-40.52h26.08c15.37,0,28.84,2.17,40.41,6.51,11.56,4.35,21.23,10.36,28.99,18.05,7.76,7.68,13.58,16.58,17.46,26.67s5.82,20.81,5.82,32.14v5.12c0,10.4-1.94,20.62-5.82,30.62-3.88,10.02-9.7,19.02-17.46,27.02-7.77,8-17.43,14.37-28.99,19.1-11.57,4.74-25.03,7.11-40.41,7.11h-26.08Z"/>
      <path class="st2" d="M1216.61-1695.4c-15.52,0-29.03-2.67-40.52-8.03-11.49-5.35-21.04-12.41-28.65-21.19-7.61-8.77-13.27-18.28-17-28.53-3.72-10.24-5.59-20.18-5.59-29.81v-5.12c0-10.71,1.94-21.23,5.82-31.56,3.88-10.33,9.7-19.68,17.47-28.06,7.76-8.38,17.35-15.06,28.76-20.03,11.41-4.97,24.64-7.45,39.7-7.45s28.06,2.48,39.48,7.45c11.41,4.97,21,11.65,28.76,20.03,7.76,8.38,13.62,17.74,17.59,28.06s5.94,20.84,5.94,31.56v5.12c0,9.63-1.9,19.57-5.71,29.81-3.8,10.25-9.51,19.76-17.12,28.53-7.61,8.78-17.15,15.84-28.64,21.19-11.49,5.36-24.92,8.03-40.29,8.03ZM1216.61-1735.92c7.45,0,14.13-1.25,20.03-3.73,5.9-2.48,10.95-5.98,15.14-10.48s7.37-9.74,9.55-15.72c2.17-5.98,3.26-12.46,3.26-19.45,0-7.46-1.12-14.21-3.38-20.27-2.25-6.05-5.47-11.25-9.67-15.6-4.19-4.34-9.24-7.68-15.14-10.01-5.9-2.33-12.5-3.5-19.8-3.5s-14.13,1.17-20.03,3.5c-5.9,2.32-10.95,5.66-15.14,10.01-4.19,4.35-7.38,9.55-9.55,15.6-2.18,6.06-3.26,12.81-3.26,20.27,0,6.99,1.09,13.47,3.26,19.45,2.17,5.98,5.36,11.22,9.55,15.72s9.23,8,15.14,10.48c5.9,2.48,12.57,3.73,20.03,3.73Z"/>
    </g>
    <g>
      <path class="st2" d="M1556.29-1815.15c-14.84,0-27.78-2.46-38.83-7.38-11.05-4.91-20.17-11.53-27.36-19.86-7.19-8.32-12.52-17.56-16.01-27.7-3.48-10.14-5.22-20.28-5.22-30.43v-4.99c0-10.45,1.74-20.66,5.22-30.65,3.49-9.99,8.75-19.07,15.79-27.24,7.03-8.17,15.81-14.68,26.33-19.53,10.52-4.84,22.67-7.26,36.44-7.26,14.99,0,28.23,2.76,39.74,8.28,11.5,5.53,20.74,13.17,27.7,22.93,6.96,9.76,10.97,21.08,12.03,33.94h-37.23c-.91-6.05-3.3-11.35-7.15-15.89-3.86-4.54-8.79-8.09-14.76-10.67s-12.75-3.86-20.32-3.86-13.74,1.29-19.41,3.86c-5.68,2.57-10.52,6.2-14.53,10.9s-7.04,10.26-9.08,16.69-3.07,13.51-3.07,21.22,1.1,15.33,3.3,21.91,5.41,12.26,9.65,17.02c4.23,4.77,9.49,8.44,15.78,11.02,6.28,2.57,13.28,3.86,21,3.86,10.29,0,19.22-2.12,26.79-6.36,7.56-4.24,13.01-9.84,16.35-16.8l-4.54,25.43v-39.51h34.28v35.42c-7.12,11.5-16.92,20.32-29.4,26.45-12.49,6.13-26.99,9.2-43.48,9.2ZM1551.52-1878.95v-26.79h91.27v26.79h-91.27Z"/>
      <path class="st2" d="M1666.85-1819.46v-165.74h36.33v165.74h-36.33ZM1698.64-1954.32v-30.88h70.84v30.88h-70.84ZM1698.64-1888.25v-30.87h67.21v30.87h-67.21ZM1698.64-1819.46v-30.87h72.42v30.87h-72.42Z"/>
      <path class="st2" d="M1858.25-1815.15c-14.99,0-27.62-2.38-37.92-7.15-10.3-4.77-18.09-11.28-23.39-19.52s-7.94-17.75-7.94-28.5h36.1c0,4.24,1.17,8.18,3.52,11.81,2.34,3.63,5.94,6.55,10.78,8.74,4.84,2.19,11.12,3.3,18.85,3.3,6.96,0,12.79-.91,17.48-2.73,4.69-1.81,8.25-4.35,10.67-7.61,2.42-3.25,3.64-6.99,3.64-11.24,0-5.29-2.27-9.49-6.81-12.6s-11.88-5.11-22.03-6.02l-12.48-1.13c-16.5-1.37-29.67-6.51-39.51-15.44-9.84-8.93-14.75-20.74-14.75-35.42,0-10.59,2.53-19.75,7.6-27.47,5.07-7.71,12.15-13.66,21.23-17.82s19.83-6.24,32.24-6.24,24.18,2.23,33.49,6.7,16.46,10.74,21.46,18.84c5,8.1,7.49,17.6,7.49,28.5h-36.33c0-4.09-.98-7.84-2.95-11.24-1.97-3.41-4.88-6.17-8.74-8.28-3.86-2.12-8.67-3.18-14.42-3.18-5.45,0-10.03.91-13.74,2.73-3.71,1.81-6.47,4.27-8.29,7.38-1.81,3.1-2.72,6.47-2.72,10.1,0,4.69,1.66,8.78,4.99,12.26,3.33,3.49,8.78,5.53,16.35,6.13l12.72,1.14c12.1,1.06,22.78,3.67,32.01,7.83,9.23,4.17,16.46,9.84,21.68,17.03,5.22,7.19,7.84,15.93,7.84,26.22s-2.76,19.87-8.29,27.81c-5.52,7.95-13.36,14.12-23.49,18.5-10.14,4.39-22.26,6.58-36.33,6.58Z"/>
      <path class="st2" d="M1933.63-1952.74v-32.47h130.55v32.47h-130.55ZM1980.17-1819.46v-137.82h37.24v137.82h-37.24Z"/>
      <path class="st2" d="M2057.14-1819.46l54.72-165.74h60.16l56.77,165.74h-38.6l-45.86-140.09,11.8,4.77h-29.29l12.26-4.77-44.73,140.09h-37.23ZM2162.26-1997.92c-4.69,0-8.74-.6-12.15-1.81-3.4-1.21-6.43-2.61-9.08-4.2-2.65-1.59-5.41-2.99-8.28-4.21-2.88-1.21-6.21-1.81-9.99-1.81-4.84,0-9.04.87-12.6,2.61-3.56,1.75-6.4,3.9-8.52,6.47l-5.44-24.52c2.57-3.18,6.05-5.86,10.44-8.06s9.76-3.3,16.12-3.3c4.84,0,8.93.61,12.26,1.81,3.33,1.21,6.36,2.61,9.08,4.2,2.73,1.59,5.52,2.99,8.4,4.21,2.87,1.21,6.2,1.81,9.99,1.81,4.84,0,9.04-.91,12.6-2.73s6.39-4.01,8.51-6.58l5.45,24.75c-2.57,3.18-6.05,5.87-10.44,8.06-4.4,2.2-9.84,3.3-16.35,3.3ZM2098.69-1860.55l11.35-30.88h64.93l11.58,30.88h-87.86Z"/>
      <path class="st2" d="M2323-1815.15c-14.98,0-28.04-2.61-39.17-7.83-11.12-5.22-20.32-12.11-27.59-20.66-7.27-8.55-12.67-17.83-16.23-27.81-3.55-9.99-5.33-19.61-5.33-28.84v-4.99c0-10.3,1.85-20.47,5.56-30.54,3.71-10.07,9.27-19.19,16.69-27.36,7.41-8.18,16.65-14.72,27.7-19.64,11.05-4.91,23.84-7.37,38.37-7.37s27.32,2.46,38.37,7.37c11.05,4.92,20.28,11.47,27.7,19.64,7.42,8.17,13.01,17.29,16.8,27.36,3.78,10.07,5.67,20.24,5.67,30.54v4.99c0,9.23-1.81,18.85-5.44,28.84-3.64,9.99-9.08,19.26-16.35,27.81-7.27,8.55-16.46,15.44-27.59,20.66-11.12,5.22-24.18,7.83-39.17,7.83ZM2323-1849.89c7.87,0,14.94-1.36,21.23-4.09,6.28-2.73,11.66-6.51,16.12-11.35s7.83-10.44,10.1-16.8c2.27-6.36,3.41-13.17,3.41-20.43,0-7.71-1.18-14.79-3.52-21.22s-5.75-12.04-10.21-16.8-9.8-8.44-16.01-11.01c-6.21-2.57-13.25-3.86-21.12-3.86s-14.91,1.29-21.12,3.86c-6.2,2.57-11.54,6.24-16.01,11.01s-7.83,10.37-10.1,16.8-3.41,13.51-3.41,21.22c0,7.27,1.14,14.08,3.41,20.43,2.27,6.36,5.63,11.96,10.1,16.8s9.8,8.63,16.01,11.35,13.24,4.09,21.12,4.09Z"/>
    </g>
    <path class="st2" d="M1172.6-1548.38H332.06c-134.33,0-243.61-109.28-243.61-243.61s109.28-243.61,243.61-243.61h1084.15v243.61c0,134.33-109.28,243.61-243.61,243.61ZM332.06-1997.44c-113.28,0-205.45,92.17-205.45,205.45s92.17,205.45,205.45,205.45h840.54c113.28,0,205.45-92.17,205.45-205.45v-205.45H332.06Z"/>
  </g>
  <g>
    <g>
      <path class="st2" d="M740.82-1044v86.08h-24.15v-219.85h24.15v25.08c13.63-18.27,33.13-29.42,56.05-29.42,43.35,0,79.58,36.54,79.58,83.91s-36.23,82.99-79.58,82.99c-22.91,0-42.42-10.84-56.05-28.8ZM740.82-1124.2v52.02c10.53,19.51,31.58,34.06,56.05,34.06,30.34,0,54.81-25.08,54.81-60.07s-24.46-61-54.81-61c-24.46,0-44.9,14.86-56.05,34.99Z"/>
      <path class="st2" d="M903.69-1019.85v-21.68h62.86c25.08,0,34.99-13.31,34.99-29.11,0-13.32-8.05-25.7-34.37-25.7h-17.65c-27.25,0-46.45-16.41-46.45-40.56s19.2-40.87,46.45-40.87h68.12v21.68h-67.19c-16.1,0-23.53,8.36-23.53,19.2s7.74,18.89,23.53,18.89h17.96c39.32,0,56.97,21.98,56.97,47.69,0,27.25-17.65,50.47-57.28,50.47h-64.41Z"/>
      <path class="st2" d="M1055.1-1019.85v-157.92h24.15v157.92h-24.15Z"/>
      <path class="st2" d="M1201.25-1015.21c-48.61,0-86.08-37.47-86.08-83.91s37.47-82.99,86.08-82.99c36.23,0,67.5,20.44,78.65,54.81h-25.7c-8.67-18.89-28.49-31.89-52.95-31.89-35.61,0-61.31,26.32-61.31,60.07s25.7,61,61.31,61c24.77,0,44.28-12.7,52.95-31.58h25.7c-10.53,33.75-42.73,54.5-78.65,54.5Z"/>
      <path class="st2" d="M1388.28-1015.21c-48.92,0-86.7-37.47-86.7-83.91s37.78-82.99,86.7-82.99,86.7,37.16,86.7,82.99-37.47,83.91-86.7,83.91ZM1388.28-1038.12c35.92,0,61.93-26.63,61.93-61s-26.01-60.07-61.93-60.07-61.93,26.32-61.93,60.07,26.01,61,61.93,61Z"/>
      <path class="st2" d="M1640.32-1044.62c-13.62,18.27-33.13,29.42-56.05,29.42-43.35,0-79.58-36.54-79.58-83.91s36.23-82.99,79.58-82.99c22.91,0,42.42,10.84,56.05,28.8v-24.46h24.15v157.92h-24.15v-24.77ZM1584.28-1038.12c24.46,0,44.9-14.86,56.05-34.99v-52.02c-10.53-19.51-31.58-34.06-56.05-34.06-30.35,0-54.81,25.08-54.81,60.07s24.46,61,54.81,61Z"/>
      <path class="st2" d="M1816.82-957.92h-91.66v-21.68h93.2c10.22,0,16.41-5.26,16.41-16.72v-47.69c-13.62,17.96-33.13,28.8-56.05,28.8-43.35,0-79.58-36.23-79.58-82.99s36.23-83.91,79.58-83.91c22.91,0,42.42,11.15,56.05,29.42v-25.08h24.15v182.69c0,21.68-13.32,37.16-42.11,37.16ZM1778.73-1038.12c24.46,0,45.52-14.55,56.05-34.06v-52.02c-11.15-20.13-31.58-34.99-56.05-34.99-30.35,0-54.81,25.39-54.81,61s24.46,60.07,54.81,60.07Z"/>
      <path class="st2" d="M1980.3-1015.21c-48.92,0-86.7-37.47-86.7-83.91s37.78-82.99,86.7-82.99,86.7,37.16,86.7,82.99-37.47,83.91-86.7,83.91ZM1980.3-1038.12c35.92,0,61.93-26.63,61.93-61s-26.01-60.07-61.93-60.07-61.93,26.32-61.93,60.07,26.01,61,61.93,61Z"/>
      <path class="st2" d="M2125.83-1131.33v111.47h-24.15v-157.92h24.15v17.65c13-12.39,31.27-21.98,54.81-21.98v26.01c-27.25,0-46.14,12.69-54.81,24.77Z"/>
      <path class="st2" d="M2323.69-1044.62c-13.62,18.27-33.13,29.42-56.05,29.42-43.35,0-79.58-36.54-79.58-83.91s36.23-82.99,79.58-82.99c22.91,0,42.42,10.84,56.05,28.8v-24.46h24.15v157.92h-24.15v-24.77ZM2267.64-1038.12c24.46,0,44.9-14.86,56.05-34.99v-52.02c-10.53-19.51-31.58-34.06-56.05-34.06-30.35,0-54.81,25.08-54.81,60.07s24.46,61,54.81,61Z"/>
    </g>
    <g>
      <path class="st2" d="M551.3-1286.77l-90.16,90.16c-12.14,12.16-27.26,20.28-43.72,23.68v-165.08c-6.07-.44-12.22-.67-18.4-.67s-12.33.23-18.4.67v164.83c-16.01-3.54-30.7-11.55-42.56-23.43l-90.69-90.67c-9.77,7.52-18.95,15.71-27.5,24.54l92.17,92.16c23.38,23.38,54.48,36.26,87.56,36.26s64.18-12.88,87.57-36.26l91.57-91.57c-8.52-8.86-17.69-17.08-27.43-24.63Z"/>
      <path class="st2" d="M522.2-1090.17l123.85-32.71c-1.66-12.33-4.2-24.37-7.6-36.05l-125.65,33.18c-66.02,17.42-105.55,85.32-88.11,151.35l33.6,127.22c12.05-2.96,23.75-6.77,35.05-11.39l-33.06-125.23c-4.49-16.99-3.61-34.15,1.58-49.68l143.73,83.68c6.85-10.13,12.99-20.79,18.32-31.92l-143.3-83.44c10.84-11.75,25.04-20.64,41.6-25.01Z"/>
      <path class="st2" d="M361.97-1065.84c-16.18-28.85-42.62-49.68-74.47-58.64l-127.52-35.91c-3.47,11.68-6.1,23.71-7.83,36.02l125.37,35.3c16.55,4.67,31.03,13.89,42.04,26.58l-145.17,81.36c5.36,11.11,11.52,21.76,18.42,31.88l144.53-81.01c4.74,15.68,4.93,32.41.38,48.56l-34.51,122.51c11.27,4.7,22.94,8.59,34.98,11.61l34.95-124.14c8.97-31.85,5-65.27-11.17-94.13Z"/>
    </g>
  </g>
  <g>
    <g>
      <path class="st2" d="M644.44-480.05c11.29,5.99,20.2,14.96,26.76,26.93,6.54,11.97,9.82,26.53,9.82,43.69v109.4h-30.48v-104.99c0-18.51-4.57-32.68-13.72-42.5-9.14-9.82-21.51-14.73-37.09-14.73s-28.79,5.14-38.27,15.41c-9.48,10.28-14.23,25.12-14.23,44.54v102.28h-30.48v-104.99c0-18.51-4.57-32.68-13.72-42.5-9.14-9.82-21.51-14.73-37.09-14.73s-28.79,5.14-38.27,15.41c-9.48,10.28-14.23,25.12-14.23,44.54v102.28h-30.82v-185.6h30.82v26.76c6.1-9.71,14.28-17.16,24.56-22.35,10.27-5.19,21.62-7.79,34.04-7.79,15.58,0,29.35,3.5,41.32,10.5,11.96,7,20.88,17.27,26.76,30.82,5.19-13.09,13.77-23.25,25.74-30.48,11.96-7.22,25.28-10.84,39.96-10.84s27.32,3,38.61,8.98Z"/>
      <path class="st2" d="M765.19-308.84c-14.11-7.9-25.18-19.14-33.19-33.7-8.02-14.56-12.02-31.44-12.02-50.63s4.12-35.73,12.36-50.3c8.24-14.56,19.48-25.74,33.7-33.53,14.23-7.79,30.14-11.68,47.76-11.68s33.53,3.9,47.75,11.68c14.23,7.79,25.45,18.91,33.7,33.36,8.24,14.45,12.36,31.27,12.36,50.46s-4.23,36.07-12.7,50.63c-8.47,14.56-19.93,25.8-34.38,33.7-14.45,7.91-30.48,11.85-48.09,11.85s-33.14-3.95-47.25-11.85ZM843.59-331.87c9.71-5.19,17.55-12.98,23.54-23.37,5.98-10.38,8.97-23.03,8.97-37.93s-2.94-27.55-8.81-37.93c-5.87-10.38-13.55-18.12-23.03-23.2-9.48-5.08-19.76-7.62-30.82-7.62s-21.62,2.54-30.99,7.62c-9.37,5.08-16.88,12.82-22.52,23.2-5.65,10.39-8.47,23.03-8.47,37.93s2.76,27.89,8.3,38.27c5.53,10.39,12.92,18.12,22.18,23.2,9.26,5.08,19.42,7.62,30.48,7.62s21.45-2.59,31.16-7.79ZM846.98-540.51l-72.14,38.61v-23.03l72.14-42.34v26.76Z"/>
      <path class="st2" d="M1017.34-328.49l57.58-157.15h32.85l-72.82,185.6h-35.9l-72.82-185.6h33.19l57.92,157.15Z"/>
      <path class="st2" d="M1306.58-381.32h-148.35c1.13,18.29,7.39,32.57,18.8,42.84,11.4,10.28,25.23,15.41,41.49,15.41,13.32,0,24.44-3.1,33.36-9.31,8.92-6.21,15.18-14.51,18.8-24.89h33.19c-4.97,17.84-14.9,32.35-29.8,43.52-14.9,11.18-33.42,16.76-55.54,16.76-17.61,0-33.36-3.95-47.25-11.85-13.89-7.9-24.78-19.14-32.68-33.7-7.91-14.56-11.85-31.44-11.85-50.63s3.84-36.01,11.52-50.46c7.67-14.45,18.46-25.57,32.34-33.36,13.89-7.79,29.86-11.68,47.93-11.68s33.19,3.84,46.74,11.52c13.55,7.68,23.99,18.24,31.33,31.67,7.33,13.44,11.01,28.62,11.01,45.55,0,5.87-.34,12.08-1.02,18.63ZM1267.97-436.7c-5.2-8.47-12.25-14.9-21.17-19.3-8.92-4.4-18.8-6.61-29.63-6.61-15.58,0-28.85,4.97-39.79,14.9-10.96,9.94-17.22,23.71-18.8,41.32h117.18c0-11.74-2.6-21.85-7.79-30.31Z"/>
      <path class="st2" d="M1349.25-521.88c-4.06-4.06-6.1-9.03-6.1-14.9s2.03-10.84,6.1-14.9c4.06-4.06,9.03-6.1,14.9-6.1s10.44,2.03,14.39,6.1c3.95,4.06,5.93,9.03,5.93,14.9s-1.98,10.84-5.93,14.9c-3.95,4.06-8.75,6.1-14.39,6.1s-10.84-2.03-14.9-6.1ZM1379.05-485.64v185.6h-30.82v-185.6h30.82Z"/>
      <path class="st2" d="M1458.98-304.27c-11.29-4.85-20.21-11.63-26.76-20.32-6.55-8.69-10.16-18.68-10.84-29.97h31.84c.9,9.26,5.25,16.82,13.04,22.69,7.79,5.87,18,8.81,30.65,8.81,11.74,0,21-2.59,27.77-7.79,6.77-5.19,10.16-11.74,10.16-19.64s-3.62-14.17-10.84-18.12c-7.23-3.95-18.41-7.84-33.53-11.68-13.77-3.61-25.01-7.28-33.7-11.01-8.7-3.72-16.15-9.25-22.35-16.6-6.21-7.34-9.31-16.99-9.31-28.96,0-9.48,2.82-18.17,8.47-26.08,5.64-7.9,13.66-14.17,24.04-18.8,10.38-4.63,22.24-6.94,35.56-6.94,20.54,0,37.14,5.2,49.79,15.58,12.64,10.39,19.42,24.61,20.32,42.67h-30.82c-.68-9.71-4.57-17.49-11.69-23.37-7.11-5.87-16.65-8.81-28.62-8.81-11.07,0-19.87,2.37-26.42,7.11-6.55,4.74-9.82,10.95-9.82,18.63,0,6.1,1.97,11.12,5.92,15.07,3.95,3.95,8.92,7.11,14.9,9.48,5.98,2.37,14.28,5.03,24.89,7.96,13.32,3.61,24.16,7.17,32.51,10.67,8.35,3.5,15.52,8.75,21.51,15.75,5.98,7,9.09,16.15,9.31,27.43,0,10.16-2.82,19.31-8.47,27.43-5.65,8.13-13.61,14.51-23.88,19.14-10.28,4.63-22.07,6.94-35.39,6.94-14.23,0-26.98-2.43-38.27-7.28Z"/>
    </g>
    <g>
      <path class="st2" d="M1762.34-469.21c13.77,14.11,20.66,33.82,20.66,59.1v110.07h-47.42v-103.64c0-14.9-3.73-26.36-11.18-34.38-7.45-8.01-17.61-12.02-30.48-12.02s-23.43,4.01-30.99,12.02c-7.57,8.02-11.35,19.47-11.35,34.38v103.64h-47.42v-187.63h47.42v23.37c6.32-8.13,14.39-14.5,24.22-19.14,9.82-4.63,20.6-6.94,32.35-6.94,22.35,0,40.41,7.06,54.19,21.17Z"/>
      <path class="st2" d="M1862.59-309.01c-14.45-8.01-25.8-19.36-34.04-34.04-8.25-14.67-12.36-31.61-12.36-50.8s4.23-36.12,12.7-50.8c8.47-14.68,20.03-26.02,34.72-34.04,14.67-8.01,31.04-12.02,49.11-12.02s34.43,4.01,49.11,12.02c14.68,8.02,26.25,19.36,34.72,34.04,8.47,14.68,12.7,31.61,12.7,50.8s-4.35,36.13-13.04,50.8c-8.7,14.68-20.44,26.03-35.22,34.04-14.79,8.02-31.33,12.02-49.62,12.02s-34.32-4.01-48.77-12.02ZM1935.58-344.57c7.56-4.18,13.6-10.44,18.12-18.8,4.52-8.35,6.78-18.51,6.78-30.48,0-17.83-4.69-31.55-14.06-41.15-9.37-9.59-20.83-14.39-34.38-14.39s-24.89,4.8-34.04,14.39c-9.15,9.6-13.72,23.32-13.72,41.15s4.46,31.56,13.38,41.15c8.92,9.6,20.15,14.39,33.7,14.39,8.58,0,16.65-2.09,24.22-6.27Z"/>
      <path class="st2" d="M2115.42-481.91c9.82-5.64,21.05-8.47,33.7-8.47v49.79h-12.53c-14.9,0-26.14,3.5-33.7,10.5-7.57,7-11.35,19.19-11.35,36.58v93.48h-47.42v-187.63h47.42v29.13c6.1-9.93,14.06-17.72,23.88-23.37Z"/>
      <path class="st2" d="M2236.16-448.72v90.77c0,6.32,1.52,10.9,4.57,13.72,3.05,2.83,8.18,4.23,15.41,4.23h22.02v39.97h-29.81c-39.96,0-59.95-19.42-59.95-58.25v-90.43h-22.35v-38.95h22.35v-46.4h47.75v46.4h42v38.95h-42Z"/>
      <path class="st2" d="M2485.43-379.63h-137.17c1.13,13.55,5.87,24.16,14.23,31.84,8.35,7.68,18.63,11.52,30.82,11.52,17.61,0,30.14-7.56,37.59-22.69h51.14c-5.42,18.07-15.81,32.91-31.16,44.54-15.36,11.63-34.21,17.44-56.56,17.44-18.07,0-34.27-4.01-48.6-12.02-14.34-8.01-25.52-19.36-33.53-34.04-8.02-14.67-12.02-31.61-12.02-50.8s3.95-36.46,11.85-51.14c7.9-14.67,18.97-25.96,33.19-33.87,14.23-7.9,30.6-11.85,49.11-11.85s33.81,3.84,47.92,11.52c14.11,7.68,25.07,18.57,32.85,32.68,7.79,14.11,11.69,30.31,11.69,48.6,0,6.77-.45,12.87-1.36,18.29ZM2437.67-411.46c-.23-12.19-4.63-21.96-13.21-29.3-8.59-7.33-19.08-11.01-31.5-11.01-11.74,0-21.62,3.56-29.63,10.67-8.02,7.11-12.93,16.99-14.73,29.64h89.07Z"/>
    </g>
    <g>
      <path class="st2" d="M290.56-425.68c-7.93-51.46-43.14-94.8-91.88-113.1-29.73-11.17-62.48-11.18-92.21,0-48.91,18.32-84.18,61.78-92.04,113.4-.81,5.29-1.22,10.68-1.22,16.03-.02,28.49,11.06,55.28,31.19,75.44,10.12,10.13,21.91,17.97,34.76,23.27l-22.28,33.37c-3.5,5.24-2.09,12.33,3.15,15.83,1.95,1.3,4.15,1.92,6.33,1.92,3.68,0,7.3-1.78,9.5-5.08l26.37-39.5c5.76.95,11.63,1.47,17.58,1.47h65.53c5.42,0,10.88-.43,16.23-1.27.44-.07.87-.16,1.31-.24l26.4,39.53c2.2,3.29,5.82,5.08,9.5,5.08,2.18,0,4.38-.62,6.33-1.92,5.24-3.5,6.65-10.59,3.15-15.83l-22.32-33.43c17.96-7.39,33.6-19.58,45.35-35.66,16.81-23.01,23.65-51.18,19.27-79.31ZM252.87-359.83c-13.21,18.08-32.67,29.94-54.8,33.38-4.2.66-8.5.99-12.76,1h-65.49c-22.39-.01-43.44-8.75-59.26-24.59-15.83-15.84-24.53-36.9-24.52-59.31,0-4.2.32-8.43.96-12.59,6.62-43.47,36.31-80.05,77.49-95.48,12.28-4.61,25.18-6.92,38.08-6.92s25.8,2.31,38.08,6.92c41.03,15.41,70.68,51.89,77.36,95.23,3.44,22.13-1.94,44.27-15.14,62.35Z"/>
      <path class="st2" d="M218.09-409.74l-19.26,12.79c-13.75,9.16-29.75,14.01-46.24,14.03-16.52-.02-32.52-4.88-46.28-14.04l-19.25-12.79c-5.26-3.48-12.34-2.06-15.82,3.19-3.49,5.25-2.06,12.33,3.19,15.82l19.24,12.78c17.5,11.65,37.87,17.83,58.92,17.86,21.02-.03,41.39-6.21,58.88-17.85l19.25-12.79c5.25-3.49,6.68-10.57,3.19-15.82-3.49-5.25-10.57-6.67-15.82-3.19Z"/>
    </g>
    <path class="st2" d="M341.83-553.81c-22.01-8.14-39.36-25.5-47.5-47.5l-1.78-4.8-1.78,4.8c-8.14,22.01-25.5,39.36-47.5,47.5l-4.8,1.78,4.8,1.78c22.01,8.14,39.36,25.5,47.5,47.5l1.78,4.8,1.78-4.8c8.14-22.01,25.5-39.36,47.5-47.5l4.8-1.78-4.8-1.78Z"/>
  </g>
  <g>
    <g>
      <path class="st2" d="M917.59,335.2h-7.27l-30.95,83.05-8.36,1.67v6.1h29.64v-6.1l-11.26-1.82,6.1-18.09h34.37l6.76,18.09-11.48,1.82v6.1h33.2v-6.1l-8.79-1.82-31.97-82.9ZM898.26,392.09l12.13-34.15,1.53-5.74h.65l1.67,5.74,12.64,34.37-28.63-.22Z"/>
      <path class="st2" d="M1007.25,390.93c-2.27-1.5-4.71-2.72-7.27-3.63-2.62-1.02-5.16-1.82-7.27-2.62s-5.16-1.53-7.27-2.33c-2.02-.67-3.88-1.76-5.45-3.2-1.38-1.35-2.13-3.23-2.03-5.16-.25-2.89.85-5.73,2.98-7.7,3.24-1.98,7.04-2.85,10.83-2.47,2.45-.02,4.89.27,7.27.87,1.46.28,2.9.69,4.29,1.24l1.89,11.12h5.74l1.96-17.37c-1.66-.81-3.42-1.4-5.23-1.74-2.37-.73-4.8-1.24-7.27-1.53-2.81-.45-5.65-.66-8.5-.65-4.36-.05-8.69.69-12.79,2.18-3.63,1.23-6.83,3.47-9.23,6.47-2.28,3.19-3.43,7.05-3.27,10.97-.11,3,.49,5.99,1.74,8.72,1.14,2.17,2.82,4.02,4.87,5.38,2.07,1.39,4.32,2.49,6.68,3.27,2.38.87,4.81,1.62,7.27,2.25,2.71.73,5.26,1.53,7.63,2.4,2.18.77,4.16,2.01,5.81,3.63,1.59,1.76,2.41,4.1,2.25,6.47.13,3.13-.87,6.2-2.83,8.65-3.2,2.64-7.36,3.85-11.48,3.34-2.76.05-5.52-.36-8.14-1.24-1.84-.64-3.59-1.5-5.23-2.54l-1.96-10.97h-5.81l-1.53,16.93c1.4.98,2.94,1.74,4.58,2.25,2.56.95,5.18,1.7,7.85,2.25,3.13.65,6.32.97,9.52.94,4.28.04,8.53-.64,12.57-2.03,3.82-1.21,7.17-3.57,9.59-6.76,2.57-3.75,3.82-8.25,3.56-12.79.1-3.09-.55-6.15-1.89-8.94-1.05-2.19-2.56-4.12-4.43-5.67Z"/>
      <path class="st2" d="M1071.77,390.93c-2.27-1.5-4.71-2.72-7.27-3.63-2.54-1.02-5.09-1.82-7.63-2.62s-5.16-1.53-7.27-2.33c-2.01-.69-3.87-1.77-5.45-3.2-1.33-1.38-2.06-3.24-2.03-5.16-.25-2.89.85-5.73,2.98-7.7,3.24-1.98,7.04-2.85,10.83-2.47,2.45-.02,4.89.27,7.27.87,1.47.27,2.9.68,4.29,1.24l1.96,11.12h5.67l1.96-17.37c-1.36-.7-2.8-1.23-4.29-1.6-2.37-.71-4.8-1.22-7.27-1.53-2.81-.45-5.65-.66-8.5-.65-4.42-.12-8.83.57-13.01,2.03-3.62,1.21-6.8,3.46-9.15,6.47-2.34,3.17-3.52,7.04-3.34,10.97-.12,3.01.5,6.01,1.82,8.72,1.12,2.19,2.8,4.04,4.87,5.38,2.06,1.4,4.31,2.51,6.68,3.27,2.38.87,4.81,1.62,7.27,2.25,2.71.73,5.26,1.53,7.63,2.4,2.19.79,4.2,2.03,5.89,3.63,1.55,1.79,2.33,4.11,2.18,6.47.13,3.13-.87,6.2-2.83,8.65-3.2,2.64-7.36,3.85-11.48,3.34-2.76.05-5.51-.37-8.14-1.24-1.84-.64-3.59-1.5-5.23-2.54l-1.96-10.97h-5.81l-1.53,16.93c1.41.97,2.95,1.73,4.58,2.25,2.56.95,5.18,1.7,7.85,2.25,3.13.65,6.32.97,9.52.94,4.3.04,8.57-.65,12.64-2.03,3.8-1.21,7.12-3.57,9.52-6.76,2.59-3.74,3.87-8.24,3.63-12.79.11-3.1-.56-6.17-1.96-8.94-1.18-2.23-2.84-4.17-4.87-5.67Z"/>
      <path class="st2" d="M1141.52,391.15c1.19-3.17,1.67-6.57,1.38-9.95,0-3.17-.44-6.32-1.31-9.37-.85-2.94-2.23-5.69-4.07-8.14-1.91-2.47-4.41-4.42-7.27-5.67-3.29-1.47-6.86-2.19-10.46-2.11-5.75-.11-11.39,1.51-16.2,4.65-4.81,3.28-8.61,7.83-10.97,13.15-2.77,6.27-4.13,13.06-4,19.91-.08,5.89,1,11.75,3.2,17.22,2.13,4.98,5.73,9.19,10.32,12.06,5.12,3.08,11.03,4.6,17,4.36,4.03.1,8.04-.64,11.77-2.18,2.78-1.09,5.39-2.56,7.77-4.36l3.27-2.62-1.96-3.92c-.36,0-1.96.8-4.8,1.82-3.86,1.16-7.89,1.67-11.92,1.53-4.52.23-9-.91-12.86-3.27-3.27-2.08-5.81-5.13-7.27-8.72-1.41-3.81-2.1-7.85-2.03-11.92h34.88c2.17.35,4.34-.62,5.52-2.47ZM1131.2,386.06l-29.72,1.16c-.02-4.26.61-8.5,1.89-12.57.88-3.17,2.77-5.98,5.38-7.99,2.77-1.85,6.04-2.8,9.37-2.69,4.08-.51,8.14,1.11,10.75,4.29,2.04,3.76,2.99,8.01,2.76,12.28.01,1.85-.13,3.7-.44,5.52Z"/>
      <path class="st2" d="M1198.34,390.93c-2.27-1.5-4.71-2.72-7.27-3.63-2.54-1.02-5.16-1.82-7.63-2.62s-5.16-1.53-7.27-2.33c-2.02-.67-3.88-1.76-5.45-3.2-1.38-1.35-2.13-3.23-2.03-5.16-.25-2.89.85-5.73,2.98-7.7,3.24-1.98,7.04-2.85,10.83-2.47,2.45-.02,4.89.27,7.27.87,1.47.27,2.9.68,4.29,1.24l1.89,11.12h5.74l1.96-17.37c-1.39-.69-2.85-1.23-4.36-1.6-2.37-.73-4.8-1.24-7.27-1.53-2.81-.45-5.65-.66-8.5-.65-4.36-.05-8.69.69-12.79,2.18-3.62,1.21-6.8,3.46-9.15,6.47-2.34,3.17-3.52,7.04-3.34,10.97-.12,3.01.5,6.01,1.82,8.72,1.1,2.21,2.78,4.07,4.87,5.38,2.04,1.39,4.27,2.49,6.61,3.27,2.47.87,4.94,1.6,7.27,2.25,2.33.65,5.23,1.53,7.27,2.4,2.18.77,4.16,2.01,5.81,3.63,1.59,1.76,2.41,4.1,2.25,6.47.13,3.13-.87,6.2-2.83,8.65-3.2,2.64-7.36,3.85-11.48,3.34-2.76.05-5.52-.36-8.14-1.24-1.84-.64-3.59-1.5-5.23-2.54l-1.96-10.97h-5.81l-1.53,16.93c1.4.98,2.94,1.74,4.58,2.25,2.56.95,5.18,1.7,7.85,2.25,3.13.65,6.32.97,9.52.94,4.3.04,8.57-.65,12.64-2.03,3.79-1.23,7.11-3.59,9.52-6.76,2.57-3.75,3.82-8.25,3.56-12.79.14-3.09-.51-6.17-1.89-8.94-1.07-2.25-2.64-4.24-4.58-5.81Z"/>
      <path class="st2" d="M1262.86,390.93c-2.27-1.49-4.71-2.71-7.27-3.63-2.62-1.02-5.16-1.82-7.7-2.62s-5.16-1.53-7.27-2.33c-2.01-.69-3.87-1.77-5.45-3.2-1.33-1.38-2.06-3.24-2.03-5.16-.27-2.91.86-5.77,3.05-7.7,3.21-2,6.99-2.87,10.75-2.47,2.45-.02,4.89.27,7.27.87,1.47.27,2.9.68,4.29,1.24l1.96,11.12h5.67l1.96-17.37c-1.36-.7-2.8-1.23-4.29-1.6-2.37-.72-4.8-1.23-7.27-1.53-2.81-.45-5.65-.66-8.5-.65-4.36-.05-8.69.69-12.79,2.18-3.62,1.21-6.8,3.46-9.15,6.47-2.34,3.17-3.52,7.04-3.34,10.97-.12,3.01.5,6.01,1.82,8.72,1.12,2.19,2.8,4.04,4.87,5.38,2.06,1.4,4.31,2.51,6.68,3.27,2.38.87,4.81,1.62,7.27,2.25,2.71.73,5.26,1.53,7.63,2.4,2.19.79,4.2,2.03,5.89,3.63,1.55,1.79,2.33,4.11,2.18,6.47.13,3.13-.87,6.2-2.83,8.65-3.2,2.64-7.36,3.85-11.48,3.34-2.76.05-5.51-.37-8.14-1.24-1.84-.64-3.59-1.5-5.23-2.54l-1.89-10.97h-5.89l-1.53,16.93c1.42.96,2.96,1.71,4.58,2.25,2.56.95,5.18,1.7,7.85,2.25,3.15.65,6.37.97,9.59.94,4.27.04,8.53-.65,12.57-2.03,3.8-1.21,7.12-3.57,9.52-6.76,2.59-3.74,3.87-8.24,3.63-12.79.11-3.1-.56-6.17-1.96-8.94-1.2-2.3-2.92-4.29-5.01-5.81Z"/>
      <path class="st2" d="M1328.47,360.05c-5.07-2.91-10.86-4.35-16.71-4.14-4.6-.1-9.16.9-13.3,2.91-3.87,1.93-7.28,4.65-10.03,7.99-2.74,3.51-4.86,7.47-6.25,11.7-1.47,4.55-2.21,9.31-2.18,14.1-.16,6.33.95,12.63,3.27,18.53,1.93,4.98,5.36,9.25,9.81,12.21,4.92,2.91,10.57,4.34,16.28,4.14,4.87.1,9.71-.87,14.17-2.83,3.92-1.84,7.36-4.58,10.03-7.99,2.77-3.6,4.84-7.69,6.1-12.06,1.35-4.87,2.01-9.91,1.96-14.97.14-6.1-.97-12.15-3.27-17.8-1.95-4.88-5.41-9.01-9.88-11.77ZM1327.74,406.55c-.74,3.6-2.6,6.88-5.3,9.37-2.94,2.33-6.64,3.5-10.39,3.27-4.21.24-8.39-.88-11.92-3.2-2.97-2.33-5.05-5.62-5.89-9.3-1.21-4.75-1.77-9.63-1.67-14.53-.09-5.21.35-10.42,1.31-15.55.62-3.64,2.53-6.94,5.38-9.3,7.07-4.02,15.74-4.02,22.81,0,2.81,2.35,4.75,5.57,5.52,9.15,1.23,5.21,1.79,10.56,1.67,15.91.05,4.77-.46,9.52-1.53,14.17h0Z"/>
      <path class="st2" d="M1390.08,355.91c-2.23.09-4.41.74-6.32,1.89-2.13,1.12-4.14,2.43-6.03,3.92-1.67,1.31-2.76,2.18-3.27,2.69l-2.33-7.77-20.05,3.85v5.74l10.83,1.96v50.21l-9.45,1.89v5.74h33.64v-5.96l-12.79-1.82v-49.41c.93-.39,1.91-.66,2.91-.8,1.09-.1,2.18-.1,3.27,0,.92-.08,1.84-.08,2.76,0l2.91.58,5.81,1.53c1.32-.76,2.4-1.86,3.12-3.2,1.62-2.87,1.42-6.41-.51-9.08-1.13-1.3-2.79-2.02-4.5-1.96Z"/>
      <path class="st2" d="M1412.02,338.4c-.08,2.26.7,4.47,2.18,6.18,1.41,1.61,3.46,2.51,5.59,2.47,2.44.14,4.79-.95,6.25-2.91,1.51-1.87,2.31-4.21,2.25-6.61.15-2.27-.64-4.5-2.18-6.18-3.41-3.05-8.65-2.76-11.7.65,0,0,0,0,0,0-1.57,1.76-2.42,4.04-2.4,6.39Z"/>
      <polygon class="st2" points="1427.06 358.52 1423.72 357.29 1404.54 361.21 1404.54 366.88 1415.65 368.84 1415.65 418.39 1404.39 420.28 1404.39 426.02 1437.89 426.02 1437.89 420.28 1427.06 418.39 1427.06 358.52"/>
      <path class="st2" d="M1498.12,371.89c.03-2.83-.7-5.61-2.11-8.06-1.45-2.45-3.57-4.44-6.1-5.74-3.11-1.55-6.56-2.3-10.03-2.18-2.57.09-5.13.43-7.63,1.02-3.24.76-6.41,1.83-9.45,3.2-2.99,1.31-5.7,3.19-7.99,5.52-1.99,1.91-3.16,4.51-3.27,7.27-.09,1.77.63,3.48,1.96,4.65,1.2,1.32,2.87,2.1,4.65,2.18,1.13.04,2.25-.08,3.34-.36l1.09-.58,2.11-12.79,2.76-.65c1.92-.32,3.87-.46,5.81-.44,2.47-.05,4.93.34,7.27,1.16,1.91.73,3.53,2.09,4.58,3.85,1.15,2.01,1.7,4.3,1.6,6.61v10.46l-12.5,1.82c-4.84.43-9.56,1.71-13.95,3.78-3.39,1.6-6.25,4.12-8.28,7.27-1.82,3.08-2.75,6.6-2.69,10.17,0,2.96.64,5.89,1.89,8.57,1.33,2.69,3.47,4.89,6.1,6.32,3.53,1.69,7.42,2.49,11.33,2.33,2.46,0,4.9-.33,7.27-1.02,2.14-.66,4.21-1.54,6.18-2.62,1.75-.9,3.41-1.97,4.94-3.2h.22c.24,1.57.83,3.06,1.74,4.36,1.34,1.54,3.35,2.32,5.38,2.11,2.22.03,4.44-.19,6.61-.65,1.55-.34,3.08-.78,4.58-1.31l2.18-.87v-5.3l-9.88-1.89.29-44.98ZM1486.71,415.49c-3.97,1.63-8.21,2.54-12.5,2.69-8.43,0-12.64-3.56-12.64-10.61-.12-2.69.85-5.31,2.69-7.27,2.34-2.19,5.19-3.76,8.28-4.58,4.75-1.26,9.62-1.99,14.53-2.18l-.36,21.94Z"/>
      <path class="st2" d="M1600.35,391.15c1.19-3.17,1.67-6.57,1.38-9.95,0-3.17-.44-6.32-1.31-9.37-.85-2.94-2.23-5.69-4.07-8.14-1.92-2.45-4.42-4.4-7.27-5.67-3.29-1.47-6.86-2.19-10.46-2.11-5.75-.12-11.39,1.5-16.2,4.65-4.81,3.28-8.61,7.83-10.97,13.15-2.8,6.25-4.17,13.06-4,19.91-.08,5.89,1,11.75,3.2,17.22,2.01,4.92,5.45,9.12,9.88,12.06,5.12,3.09,11.03,4.61,17,4.36,4.03.1,8.04-.64,11.77-2.18,2.78-1.09,5.39-2.56,7.77-4.36l3.27-2.62-1.96-3.92c-.36,0-1.96.8-4.8,1.82-3.86,1.16-7.89,1.67-11.92,1.53-4.52.23-9-.91-12.86-3.27-3.29-2.06-5.84-5.11-7.27-8.72-1.41-3.81-2.1-7.85-2.03-11.92h34.88c2.31.54,4.71-.45,5.96-2.47ZM1590.03,386.06l-29.72,1.16c-.04-4.26.57-8.5,1.82-12.57,1.78-6.5,7.8-10.92,14.53-10.68,4.08-.51,8.14,1.11,10.75,4.29,2.04,3.76,2.99,8.01,2.76,12.28.11,1.84.06,3.69-.15,5.52h0Z"/>
      <polygon class="st2" points="1707.59 341.74 1717.04 343.92 1717.04 409.17 1716.46 409.17 1714.35 405.03 1669.16 335.86 1648.89 335.86 1648.89 342.03 1657.6 343.92 1657.6 417.96 1648.16 420.14 1648.16 426.02 1676.13 426.02 1676.13 420.14 1666.4 417.96 1666.4 352.71 1666.98 352.71 1668.79 356.49 1714.28 426.02 1725.76 426.02 1725.76 343.92 1735.13 341.74 1735.13 335.86 1707.59 335.86 1707.59 341.74"/>
      <path class="st2" d="M1800.45,391.15c1.19-3.17,1.67-6.57,1.38-9.95,0-3.17-.44-6.32-1.31-9.37-.82-2.93-2.18-5.69-4-8.14-1.91-2.46-4.41-4.41-7.27-5.67-3.26-1.48-6.81-2.2-10.39-2.11-5.75-.13-11.4,1.49-16.2,4.65-4.83,3.27-8.66,7.83-11.04,13.15-2.74,6.27-4.08,13.07-3.92,19.91-.11,5.9.98,11.76,3.2,17.22,1.96,4.95,5.42,9.16,9.88,12.06,5.09,3.08,10.98,4.6,16.93,4.36,4.03.1,8.04-.64,11.77-2.18,2.78-1.09,5.39-2.56,7.77-4.36l3.27-2.62-1.96-3.92c-.36,0-1.96.8-4.8,1.82-3.84,1.16-7.84,1.67-11.84,1.53-4.52.23-9-.91-12.86-3.27-3.16-2.11-5.57-5.16-6.9-8.72-1.43-3.81-2.15-7.85-2.11-11.92h34.95c2.15.36,4.3-.62,5.45-2.47ZM1790.2,386.06l-29.79,1.16c-.02-4.26.61-8.5,1.89-12.57.93-3.17,2.84-5.97,5.45-7.99,2.76-1.88,6.04-2.82,9.37-2.69,4.06-.51,8.1,1.11,10.68,4.29,2.07,3.75,3.03,8.01,2.76,12.28.04,1.85-.09,3.69-.36,5.52h0Z"/>
      <path class="st2" d="M1869.33,354.38c-1.85.02-3.66.47-5.3,1.31-1.58.78-3.09,1.7-4.5,2.76-.73.64-1.51,1.22-2.33,1.74-1.96-1.41-4.15-2.47-6.47-3.12-2.86-.78-5.82-1.17-8.79-1.16-4.71-.07-9.36.98-13.59,3.05-3.86,1.92-7.15,4.83-9.52,8.43-2.36,3.65-3.58,7.93-3.49,12.28.01,2.87.6,5.72,1.74,8.36,1.17,2.86,3.08,5.37,5.52,7.27,2.89,2.15,6.21,3.63,9.74,4.36-1.67,1.1-3.15,2.48-4.36,4.07-1.25,1.57-1.92,3.52-1.89,5.52,0,1.36.29,2.7.87,3.92.42,1.05,1.01,2.04,1.74,2.91l-4.5,2.62c-1.89,1.09-3.68,2.33-5.38,3.71-1.71,1.4-3.17,3.1-4.29,5.01-2.81,5.03-2.01,11.3,1.96,15.48,2.81,2.44,6.18,4.14,9.81,4.94,4.28,1.04,8.67,1.55,13.08,1.53,4.31.03,8.61-.48,12.79-1.53,3.74-.93,7.32-2.42,10.61-4.43,2.97-1.81,5.46-4.3,7.27-7.27,1.81-2.7,2.75-5.9,2.69-9.15.13-2.94-.8-5.83-2.62-8.14-1.95-2.25-4.45-3.96-7.27-4.94-3.51-1.32-7.13-2.29-10.83-2.91l-14.53-2.76v-8.06h1.82c4.44.03,8.83-.91,12.86-2.76,3.79-1.77,7.06-4.47,9.52-7.85,2.47-3.42,3.75-7.55,3.63-11.77-.01-2.46-.35-4.9-1.02-7.27-.68-2.48-1.84-4.8-3.41-6.83,1.06-.13,2.14-.13,3.2,0l3.34.8,5.3,1.45c.36-.51.87-1.24,1.53-2.33.67-1.17.99-2.5.94-3.85.16-1.66-.43-3.31-1.6-4.5-1.29-.77-2.8-1.08-4.29-.87ZM1852.62,421.59c2.95.25,5.74,1.48,7.92,3.49,1.18,1.43,1.83,3.23,1.82,5.09.04,2.41-.88,4.73-2.54,6.47-2.02,1.96-4.53,3.34-7.27,4-3.25.85-6.6,1.27-9.95,1.24-4.74.3-9.49-.5-13.88-2.33-2.84-1.48-4.55-4.5-4.36-7.7.1-2.82,1.12-5.52,2.91-7.7,1.71-2.48,3.91-4.59,6.47-6.18l18.89,3.63ZM1852.62,386.57c-.97,1.97-2.62,3.52-4.65,4.36-2.31.93-4.78,1.38-7.27,1.31-2.66.09-5.31-.38-7.77-1.38-2-.82-3.63-2.34-4.58-4.29-1.06-2.53-1.56-5.25-1.45-7.99-.09-2.87.35-5.72,1.31-8.43.8-2.09,2.35-3.8,4.36-4.8,2.64-1.12,5.49-1.64,8.36-1.53,2.71-.11,5.4.43,7.85,1.6,1.9,1.02,3.39,2.66,4.21,4.65.95,2.45,1.39,5.07,1.31,7.7.14,3.02-.43,6.03-1.67,8.79Z"/>
      <path class="st2" d="M1928.69,360.05c-5.05-2.92-10.81-4.35-16.64-4.14-4.6-.1-9.16.9-13.3,2.91-3.88,1.91-7.3,4.64-10.03,7.99-2.77,3.49-4.89,7.45-6.25,11.7-1.47,4.55-2.21,9.31-2.18,14.1-.16,6.33.95,12.63,3.27,18.53,1.93,4.98,5.36,9.25,9.81,12.21,4.92,2.91,10.57,4.34,16.28,4.14,4.85.11,9.66-.86,14.1-2.83,3.96-1.82,7.42-4.56,10.1-7.99,2.78-3.59,4.82-7.69,6.03-12.06,1.41-4.86,2.09-9.91,2.03-14.97.14-6.1-.97-12.15-3.27-17.8-1.97-4.89-5.46-9.01-9.95-11.77ZM1928.04,406.55c-.77,3.59-2.62,6.87-5.3,9.37-2.97,2.34-6.69,3.5-10.46,3.27-4.19.24-8.34-.88-11.84-3.2-2.97-2.35-5.07-5.62-5.96-9.3-1.17-4.75-1.73-9.64-1.67-14.53-.11-5.22.35-10.43,1.38-15.55.6-3.63,2.48-6.93,5.3-9.3,3.49-2.33,7.66-3.43,11.84-3.12,3.87-.21,7.71.8,10.97,2.91,2.83,2.34,4.8,5.57,5.59,9.15,1.23,5.21,1.79,10.56,1.67,15.91.06,4.84-.45,9.67-1.53,14.39Z"/>
      <path class="st2" d="M1925.78,334.91c-.62-2.42-1.78-4.65-3.41-6.54-.9-1.18-2.24-1.94-3.71-2.11-1.04.08-2.01.51-2.76,1.24-1.12.93-2.15,1.98-3.05,3.12l-15.19,16.78,3.92,4.21,24.2-16.71Z"/>
      <path class="st2" d="M1971.92,366.95c3.26-2.16,7.14-3.2,11.04-2.98,1.99-.06,3.97.19,5.89.73,1.04.21,2.05.58,2.98,1.09l2.11,12.93c.46.27.95.49,1.45.65.84.12,1.7.12,2.54,0,1.31.08,2.61-.2,3.78-.8,1-.57,1.83-1.4,2.4-2.4.51-.99.78-2.08.8-3.2.02-3-.82-5.95-2.4-8.5-1.78-2.77-4.3-4.98-7.27-6.39-3.64-1.77-7.66-2.62-11.7-2.47-4.68-.08-9.3.94-13.51,2.98-3.89,1.96-7.28,4.79-9.88,8.28-2.72,3.65-4.76,7.76-6.03,12.13-1.35,4.72-2.01,9.62-1.96,14.53-.23,6.46,1.07,12.88,3.78,18.75,2.39,4.7,6.17,8.56,10.83,11.04,4.69,2.58,9.98,3.88,15.33,3.78,4.06.12,8.11-.55,11.92-1.96,2.6-.98,5.05-2.32,7.27-4,1.74-1.38,2.76-2.25,3.05-2.54l-1.82-4.14c-1.57.65-3.17,1.2-4.8,1.67-3.49.9-7.08,1.32-10.68,1.24-4.25.14-8.48-.7-12.35-2.47-3.29-1.79-5.86-4.66-7.27-8.14-1.78-4.83-2.59-9.97-2.4-15.11-.13-5.28.4-10.55,1.6-15.69.71-3.51,2.58-6.69,5.3-9.01Z"/>
      <polygon class="st2" points="2038.84 358.52 2035.5 357.29 2016.32 361.21 2016.32 366.88 2027.43 368.84 2027.43 418.39 2016.17 420.28 2016.17 426.02 2049.74 426.02 2049.74 420.28 2038.84 418.39 2038.84 358.52"/>
      <path class="st2" d="M2031.65,347.04c2.44.14,4.79-.95,6.25-2.91,1.46-1.89,2.23-4.22,2.18-6.61.17-2.26-.59-4.49-2.11-6.18-3.43-3.06-8.7-2.77-11.77.65-1.55,1.76-2.38,4.05-2.33,6.39-.11,2.25.65,4.46,2.11,6.18,1.43,1.63,3.5,2.53,5.67,2.47Z"/>
      <path class="st2" d="M2107.72,360.05c-5.07-2.91-10.86-4.35-16.71-4.14-4.6-.1-9.16.9-13.3,2.91-3.87,1.93-7.28,4.65-10.03,7.99-2.74,3.51-4.86,7.47-6.25,11.7-1.45,4.56-2.16,9.31-2.11,14.1-.16,6.33.95,12.63,3.27,18.53,1.93,4.98,5.36,9.25,9.81,12.21,4.91,2.92,10.56,4.35,16.28,4.14,4.85.1,9.66-.87,14.1-2.83,3.94-1.84,7.4-4.58,10.1-7.99,2.75-3.61,4.79-7.7,6.03-12.06,1.37-4.87,2.06-9.91,2.03-14.97.14-6.1-.97-12.15-3.27-17.8-1.97-4.89-5.46-9.01-9.95-11.77ZM2106.99,406.55c-.74,3.6-2.6,6.88-5.3,9.37-2.94,2.33-6.64,3.5-10.39,3.27-4.2.26-8.38-.84-11.92-3.12-2.97-2.33-5.05-5.62-5.89-9.3-1.17-4.75-1.73-9.64-1.67-14.53-.09-5.21.35-10.42,1.31-15.55.62-3.64,2.53-6.94,5.38-9.3,3.47-2.32,7.61-3.42,11.77-3.12,3.9-.22,7.76.8,11.04,2.91,2.81,2.35,4.75,5.57,5.52,9.15,1.26,5.21,1.82,10.56,1.67,15.91.06,4.81-.45,9.62-1.53,14.31Z"/>
      <path class="st2" d="M2180.3,396.74c-1.26-2.32-3.05-4.31-5.23-5.81-2.27-1.49-4.71-2.71-7.27-3.63-2.62-1.02-5.16-1.82-7.7-2.62-2.54-.8-5.16-1.53-7.27-2.33-2.01-.7-3.86-1.79-5.45-3.2-1.31-1.39-2.01-3.25-1.96-5.16-.29-2.89.82-5.75,2.98-7.7,3.21-1.99,6.99-2.85,10.75-2.47,2.45-.01,4.89.28,7.27.87,1.44.27,2.85.69,4.21,1.24l1.96,11.12h5.67l1.96-17.37c-1.36-.71-2.8-1.24-4.29-1.6-2.37-.72-4.8-1.23-7.27-1.53-2.81-.45-5.65-.66-8.5-.65-4.36-.05-8.69.69-12.79,2.18-3.6,1.25-6.77,3.49-9.15,6.47-2.34,3.17-3.52,7.04-3.34,10.97-.12,3.01.5,6.01,1.82,8.72,1.12,2.19,2.8,4.05,4.87,5.38,2.07,1.39,4.32,2.49,6.68,3.27,2.38.87,4.81,1.62,7.27,2.25,2.71.73,5.26,1.53,7.63,2.4,2.2.77,4.21,2.01,5.89,3.63,1.55,1.79,2.33,4.11,2.18,6.47.13,3.13-.87,6.2-2.83,8.65-3.2,2.64-7.36,3.85-11.48,3.34-4.74.12-9.4-1.19-13.37-3.78l-1.89-10.97h-5.89l-1.53,16.93c1.42.96,2.96,1.71,4.58,2.25,2.58.96,5.22,1.71,7.92,2.25,3.13.66,6.32.97,9.52.94,4.28.04,8.53-.65,12.57-2.03,3.8-1.21,7.12-3.57,9.52-6.76,2.59-3.74,3.87-8.24,3.63-12.79.2-3.07-.37-6.15-1.67-8.94Z"/>
      <path class="st2" d="M1174.8,63.32h-91.69v15.48l24.56,5.74v153.89l-24.56,5.74v15.48h86.32c19.33.54,38.49-3.68,55.8-12.28,15.13-7.73,27.59-19.83,35.75-34.73,8.6-16.77,12.84-35.43,12.35-54.28,0-31.68-8.67-55.39-26.01-71.13-17.34-15.74-41.51-23.71-72.51-23.9ZM1227.54,195.84c-1.64,9.27-5.48,18.02-11.19,25.5-5.5,6.47-12.78,11.19-20.93,13.59-10.43,3-21.26,4.39-32.11,4.14-3.41,0-6.9,0-10.32-.51s-6.18-.65-8.14-1.02V85.48c2.98-.44,6.18-.73,9.52-.94,3.34-.22,7.27,0,11.04,0,8.94-.08,17.85.99,26.52,3.2,7.72,1.95,14.84,5.8,20.71,11.19,6.28,6.01,10.92,13.51,13.51,21.8,3.46,11.59,5.05,23.66,4.72,35.75.12,13.21-1.08,26.4-3.56,39.38h.22Z"/>
      <path class="st2" d="M1324.83,254.91c11.8,5.66,24.77,8.43,37.85,8.06,9.26.22,18.46-1.39,27.1-4.72,6.43-2.48,12.51-5.78,18.09-9.81,4.43-3.41,7.27-5.59,7.85-6.39l-5.45-11.19c-3.4,1.54-6.89,2.85-10.46,3.92-8.89,2.58-18.14,3.71-27.39,3.34-8.84.46-17.64-1.52-25.43-5.74-6.24-3.78-10.96-9.61-13.37-16.49-2.75-8.04-4.08-16.5-3.92-24.99h74.84c4.26.35,8.39-1.55,10.9-5.01,2.84-6.64,3.99-13.88,3.34-21.07-.01-7.06-.94-14.1-2.76-20.93-1.81-6.81-4.89-13.22-9.08-18.89-4.49-6.02-10.37-10.86-17.15-14.1-8.51-3.83-17.78-5.64-27.1-5.3-26.25-.61-50.35,14.44-61.32,38.29-6.24,13.67-9.3,28.57-8.94,43.59-.53,14.6,2.33,29.12,8.36,42.43,5.04,10.76,13.49,19.55,24.05,24.99ZM1332.9,149.71c1.48-6.03,4.75-11.48,9.37-15.62,5.04-3.95,11.34-5.94,17.73-5.59,9.66,0,16.06,2.62,19.04,7.85,3.5,7.36,5.08,15.48,4.58,23.61,0,3.56-.31,7.11-.94,10.61l-52.97,2.47c.04-7.88,1.12-15.72,3.2-23.32Z"/>
      <path class="st2" d="M1547.96,194.17c-2.81-5.28-6.81-9.84-11.7-13.3-4.93-3.49-10.34-6.26-16.06-8.21-5.81-1.96-11.48-3.78-16.93-5.45l-15.04-5.09c-4.06-1.39-7.81-3.56-11.04-6.39-2.8-2.57-4.34-6.23-4.21-10.03-.26-5.02,1.74-9.9,5.45-13.3,6.33-3.94,13.8-5.66,21.22-4.87,4.28,0,8.54.47,12.72,1.38,3.12.64,6.17,1.62,9.08,2.91l5.45,22.38h16.64l3.05-41.49c-1.82-.58-5.01-1.45-9.66-2.54-5.35-1.29-10.75-2.31-16.2-3.05-6.28-.94-12.62-1.4-18.96-1.38-10.46-.18-20.87,1.52-30.73,5.01-8.38,2.9-15.71,8.2-21.07,15.26-5.16,7.69-7.7,16.84-7.27,26.08-.29,7,1.16,13.97,4.21,20.27,2.61,5.05,6.49,9.34,11.26,12.42,4.79,3.05,9.94,5.49,15.33,7.27,5.52,1.96,11.04,3.63,16.49,5.01,5.45,1.38,10.9,2.98,15.77,4.72,4.38,1.42,8.42,3.75,11.84,6.83,3.14,3.2,4.78,7.58,4.5,12.06.35,6.04-1.65,11.98-5.59,16.57-3.71,3.92-11.19,5.89-22.23,5.89-5.45.18-10.88-.81-15.91-2.91-3.35-1.35-6.57-3.03-9.59-5.01l-6.03-24.19h-16.93l-2.47,41.49c3.48,1.83,7.13,3.31,10.9,4.43,6,1.84,12.12,3.3,18.31,4.36,7.2,1.24,14.49,1.85,21.8,1.82,9.5.03,18.94-1.44,27.97-4.36,8.51-2.65,16.08-7.7,21.8-14.53,6.08-8.42,9.06-18.69,8.43-29.06.21-7.27-1.36-14.48-4.58-21Z"/>
      <polygon class="st2" points="1692.55 212.99 1673.81 212.99 1668.36 239 1613.21 239 1613.21 236.02 1690.45 129.36 1690.45 109.38 1573.25 109.38 1575.36 153.34 1594.17 153.34 1599.33 130.31 1647.43 130.31 1647.43 133.36 1569.91 241.18 1569.91 259.64 1694.08 259.64 1692.55 212.99"/>
      <path class="st2" d="M1832.42,238.57c5.87-8.06,10.19-17.16,12.72-26.81,2.73-10.36,4.1-21.04,4.07-31.75.21-13.34-2.26-26.58-7.27-38.94-4.36-10.76-11.98-19.89-21.8-26.08-11.66-6.64-24.96-9.83-38.36-9.23-11.4-.26-22.72,2.02-33.13,6.68-9.01,4.14-16.94,10.31-23.18,18.02-5.93,7.78-10.34,16.6-13.01,26.01-2.92,9.88-4.38,20.14-4.36,30.44-.22,13.98,2.24,27.86,7.27,40.91,4.15,10.96,11.81,20.24,21.8,26.37,12.01,6.53,25.58,9.67,39.24,9.08,11.6.3,23.13-1.93,33.79-6.54,8.81-4.1,16.46-10.35,22.23-18.16ZM1809.68,213.57c-.92,7.64-3.96,14.86-8.79,20.85-5.22,5.23-12.48,7.88-19.84,7.27-8.16.59-16.27-1.73-22.89-6.54-5.56-5.06-9.24-11.84-10.46-19.25-1.98-10.37-2.88-20.91-2.69-31.46-.19-10.76.61-21.51,2.4-32.11.99-7.17,4.49-13.77,9.88-18.6,6.45-4.62,14.32-6.83,22.23-6.25,7.15-.48,14.23,1.61,19.98,5.89,5.2,4.94,8.62,11.45,9.74,18.53,2.02,10.73,2.92,21.64,2.69,32.55.08,9.76-.67,19.51-2.25,29.14Z"/>
      <path class="st2" d="M1971.85,244.02c6.14-8.4,9.15-18.68,8.5-29.06.27-7.23-1.23-14.41-4.36-20.93-2.81-5.28-6.81-9.84-11.7-13.3-4.94-3.48-10.35-6.24-16.06-8.21-5.81-1.96-11.48-3.78-16.93-5.45l-15.04-5.09c-4.06-1.39-7.81-3.56-11.04-6.39-2.8-2.57-4.34-6.23-4.21-10.03-.13-4.87,1.86-9.56,5.45-12.86,6.33-3.94,13.8-5.66,21.22-4.87,4.28,0,8.54.47,12.72,1.38,3.12.64,6.17,1.62,9.08,2.91l5.45,22.38h16.64l3.05-41.49c-1.82-.58-5.09-1.45-9.66-2.54-5.37-1.3-10.8-2.31-16.28-3.05-6.25-.94-12.57-1.4-18.89-1.38-10.46-.19-20.87,1.51-30.73,5.01-8.39,2.88-15.72,8.19-21.07,15.26-5.19,7.67-7.74,16.83-7.27,26.08-.29,7,1.16,13.97,4.21,20.27,2.59,5.04,6.44,9.33,11.19,12.42,4.78,3.07,9.93,5.51,15.33,7.27,5.52,1.96,11.04,3.63,16.49,5.01,5.45,1.38,10.9,2.98,15.77,4.72,4.38,1.42,8.42,3.75,11.84,6.83,3.14,3.2,4.78,7.58,4.5,12.06.35,6.04-1.65,11.98-5.59,16.57-6.41,4.74-14.39,6.84-22.31,5.89-5.43.17-10.83-.82-15.84-2.91-3.35-1.35-6.57-3.03-9.59-5.01l-6.03-24.19h-17l-2.4,41.49c3.48,1.83,7.13,3.31,10.9,4.43,6,1.85,12.12,3.3,18.31,4.36,7.2,1.24,14.49,1.85,21.8,1.82,9.52.03,18.98-1.44,28.05-4.36,8.48-2.81,15.96-8.04,21.51-15.04Z"/>
    </g>
    <g>
      <path class="st2" d="M477.98,215.16c6.49-18.86,14.43-37.19,23.73-54.83-13.38,4.8-26.44,10.46-39.09,16.96l-2.56,4.43c-27.5,46.8-45.94,98.37-54.35,152,16.08,11.36,34.18,19.54,53.33,24.11-4.8-41.12,1.07-91.36,18.93-142.66Z"/>
      <path class="st2" d="M712.64,22.26c-54.83-31.36-140.26,10.67-209.11,96,9.01-1.49,18.29-2.72,27.73-3.68,37.33-48,82.02-73.28,118.66-60.64,26.67,9.12,43.95,36.16,51.63,73.28,19.99,5.31,39.45,12.45,58.13,21.33,3.84-58.72-11.68-105.92-47.04-126.29Z"/>
      <path class="st2" d="M685.23,286.84c-6.75,19.59-15.06,38.6-24.85,56.85,13.28-4.75,26.24-10.33,38.83-16.69,1.28-2.13,2.51-4.32,3.79-6.51,27.24-46.43,45.6-97.52,54.13-150.66-15.97-11.23-33.92-19.36-52.91-23.95,4.43,40.64-1.49,90.29-18.99,140.96Z"/>
      <path class="st2" d="M513.39,448.33c-26.03-9.01-43.47-35.41-51.31-71.73-20.18-5.25-39.83-12.39-58.67-21.33-3.73,58.08,11.84,104.64,47.15,124.85,54.56,30.77,139.41-10.45,207.89-94.56-9.01,1.49-18.24,2.67-27.63,3.63-37.07,47.2-81.22,71.57-117.44,59.15Z"/>
      <path class="st1" d="M601.93,359.53c-19.97,3.79-40.21,6-60.53,6.61,10.65,9.2,21.87,17.72,33.6,25.49h6.51c53.68.62,107.02-8.75,157.28-27.63,1.87-19.51.06-39.19-5.33-58.03-32.8,24.05-78.88,43.57-131.52,53.55Z"/>
      <path class="st1" d="M376.65,290.47c-5.33-27.47,9.65-56.21,38.24-81.33-5.23-20.04-8.59-40.51-10.03-61.17-53.44,25.6-86.88,62.61-86.88,103.78,0,62.88,78.24,116.1,185.81,133.7-5.65-7.09-11.25-14.51-16.69-22.19-59.89-8.59-103.41-34.88-110.45-72.8Z"/>
      <path class="st1" d="M561.13,143.91c20.5-3.89,41.28-6.11,62.13-6.67-10.46-9.15-21.49-17.62-33.01-25.39h-8.75c-53.74-.6-107.12,8.79-157.44,27.68-1.65,19.43.25,39,5.6,57.76,33.01-24,78.98-43.41,131.46-53.39Z"/>
      <path class="st1" d="M660.54,118.2c5.65,7.09,11.15,14.51,16.53,22.13,59.31,8.75,102.34,34.93,109.49,72.64,5.33,27.36-9.55,56.05-37.92,81.12,5.18,20.09,8.44,40.63,9.76,61.33,53.33-25.6,86.66-62.56,86.66-103.68,0-62.67-77.6-115.73-184.53-133.54Z"/>
      <path class="st0" d="M534.35,83.59c14.69-14.77,30.76-28.09,48-39.79-47.25-32-94.5-42.67-129.65-22.83-55.2,30.93-63.25,126.08-25.33,229.33,3.31-8.69,6.93-17.49,10.67-26.29-21.76-56.91-20.16-108.16,9.6-133.01,20.85-17.49,52-18.99,86.72-7.41Z"/>
      <path class="st0" d="M665.66,180.6c12.81,15.25,24.42,31.48,34.72,48.53,2.58-14.37,4.22-28.89,4.91-43.47l-1.65-2.99c-26.17-48.16-61.31-90.89-103.52-125.86-18.05,7.99-34.36,19.44-48,33.71,37.87,16.85,78.34,48,113.54,90.08Z"/>
      <path class="st0" d="M735.52,251.75c-3.31,8.69-6.93,17.49-10.67,26.29,21.87,56.85,20.32,108.1-9.44,132.96-20.85,17.49-52,18.99-86.66,7.41-14.7,14.76-30.77,28.08-48,39.79,47.25,32,94.5,42.67,129.6,22.83,55.04-30.93,63.09-126.08,25.17-229.27Z"/>
      <path class="st0" d="M497.39,321.4c-12.81-15.25-24.42-31.48-34.72-48.53-2.6,14.35-4.25,28.85-4.96,43.41.59,1.01,1.12,2.03,1.65,3.04,26.21,48.14,61.34,90.86,103.52,125.86,18.06-7.96,34.38-19.42,48-33.71-37.71-16.85-78.29-48-113.49-90.08Z"/>
    </g>
  </g>
</svg>