<?xml version="1.0" encoding="UTF-8"?>
<svg id="Layer_1" xmlns="http://www.w3.org/2000/svg" version="1.1" viewBox="0 0 2500 502">
  <!-- Generator: Adobe Illustrator 29.7.1, SVG Export Plug-In . SVG Version: 2.1.1 Build 8)  -->
  <defs>
    <style>
      .st0 {
        fill: #636363;
      }
    </style>
  </defs>
  <g>
    <path class="st0" d="M1479.96,439.44v-165.74h37.24v165.74h-37.24ZM1512.66,304.58v-30.88h66.74v30.88h-66.74ZM1512.66,372.69v-30.87h64.03v30.87h-64.03Z"/>
    <path class="st0" d="M1603.47,439.44l54.72-165.74h60.16l56.77,165.74h-38.6l-45.86-140.09,11.8,4.77h-29.29l12.26-4.77-44.73,140.09h-37.23ZM1645.02,398.35l11.35-30.88h64.93l11.58,30.88h-87.86Z"/>
    <path class="st0" d="M1819.39,439.44v-167.1h37.24v167.1h-37.24ZM1846.64,386.31v-29.29h40.87c5.45,0,10.17-1.09,14.19-3.3,4.01-2.19,7.11-5.29,9.31-9.3s3.29-8.66,3.29-13.96-1.09-9.95-3.29-13.96-5.3-7.11-9.31-9.31c-4.02-2.19-8.74-3.3-14.19-3.3h-40.87v-31.56h37.91c13.77,0,25.73,2.08,35.88,6.24,10.14,4.17,17.94,10.33,23.38,18.5,5.45,8.18,8.18,18.47,8.18,30.88v3.63c0,12.26-2.76,22.45-8.28,30.54-5.53,8.09-13.33,14.15-23.39,18.16-10.07,4.01-21.99,6.01-35.76,6.01h-37.91ZM1919.97,439.44l-48.59-71.29h40.87l50.86,71.29h-43.14Z"/>
    <path class="st0" d="M2007.83,439.44v-165.74h51.31l37.92,93.09h4.31l37.46-93.09h52.22v165.74h-36.78v-141.45l5.22.46-43.82,107.39h-35.42l-44.05-107.39,5.68-.46v141.45h-34.06Z"/>
    <path class="st0" d="M2235.32,439.44l54.72-165.74h60.16l56.77,165.74h-38.6l-45.86-140.09,11.8,4.77h-29.29l12.26-4.77-44.73,140.09h-37.23ZM2276.87,398.35l11.35-30.88h64.93l11.58,30.88h-87.86Z"/>
  </g>
  <g>
    <path class="st0" d="M241.75,343.5v-170h60.08l34.93,89.66h4.66l34.7-89.66h61.25v170h-42.85v-145.09l6.75.47-43.78,110.38h-39.36l-44.01-110.38,7.22-.47v145.09h-39.59Z"/>
    <path class="st0" d="M471.84,343.5v-170h41.92v170h-41.92ZM503.28,160.92l28.88-42.85h44.71l-33.07,42.85h-40.52ZM509.1,208.89v-35.39h70.33v35.39h-70.33ZM509.1,274.8v-35.4h66.84v35.4h-66.84ZM509.1,343.5v-35.4h71.73v35.4h-71.73Z"/>
    <path class="st0" d="M597.13,211.22v-37.72h136.47v37.72h-136.47ZM643.71,343.5v-136.94h43.32v136.94h-43.32Z"/>
    <path class="st0" d="M834.21,348.16c-15.52,0-29.03-2.67-40.52-8.03-11.49-5.35-21.04-12.41-28.65-21.19-7.61-8.77-13.27-18.28-17-28.53-3.72-10.24-5.59-20.18-5.59-29.81v-5.12c0-10.71,1.94-21.23,5.82-31.56,3.88-10.33,9.7-19.68,17.47-28.06,7.76-8.38,17.35-15.06,28.76-20.03,11.41-4.97,24.64-7.45,39.7-7.45s28.06,2.48,39.48,7.45c11.41,4.97,21,11.65,28.76,20.03s13.63,17.74,17.58,28.06c3.96,10.33,5.94,20.84,5.94,31.56v5.12c0,9.63-1.91,19.57-5.71,29.81-3.81,10.25-9.51,19.76-17.12,28.53-7.61,8.78-17.16,15.84-28.65,21.19-11.49,5.36-24.92,8.03-40.29,8.03ZM834.21,307.64c7.45,0,14.13-1.25,20.03-3.73,5.9-2.48,10.95-5.98,15.14-10.48s7.37-9.74,9.55-15.72c2.17-5.98,3.26-12.46,3.26-19.45,0-7.46-1.13-14.21-3.38-20.27-2.25-6.05-5.47-11.25-9.67-15.6-4.19-4.34-9.24-7.68-15.14-10.01-5.9-2.33-12.5-3.5-19.8-3.5s-14.13,1.17-20.03,3.5c-5.9,2.32-10.95,5.66-15.14,10.01-4.19,4.35-7.38,9.55-9.55,15.6-2.18,6.06-3.26,12.81-3.26,20.27,0,6.99,1.09,13.47,3.26,19.45,2.17,5.98,5.36,11.22,9.55,15.72s9.23,8,15.14,10.48c5.9,2.48,12.57,3.73,20.03,3.73Z"/>
    <path class="st0" d="M952.05,344.44v-172.33h43.32v172.33h-43.32ZM990.71,344.44v-40.52h27.95c7.29,0,13.86-1.05,19.68-3.14,5.82-2.1,10.75-5.13,14.79-9.08,4.04-3.96,7.14-8.77,9.32-14.44,2.17-5.66,3.26-12.07,3.26-19.21s-1.09-14.01-3.26-19.68c-2.18-5.66-5.28-10.4-9.32-14.21-4.04-3.8-8.96-6.67-14.79-8.61-5.82-1.94-12.38-2.92-19.68-2.92h-27.95v-40.52h26.08c15.37,0,28.84,2.17,40.41,6.51,11.56,4.35,21.23,10.36,28.99,18.05,7.76,7.68,13.58,16.58,17.46,26.67s5.82,20.81,5.82,32.14v5.12c0,10.4-1.94,20.62-5.82,30.62-3.88,10.02-9.7,19.02-17.46,27.02-7.77,8-17.43,14.37-28.99,19.1-11.57,4.74-25.03,7.11-40.41,7.11h-26.08Z"/>
    <path class="st0" d="M1216.61,348.16c-15.52,0-29.03-2.67-40.52-8.03-11.49-5.35-21.04-12.41-28.65-21.19-7.61-8.77-13.27-18.28-17-28.53-3.72-10.24-5.59-20.18-5.59-29.81v-5.12c0-10.71,1.94-21.23,5.82-31.56,3.88-10.33,9.7-19.68,17.47-28.06,7.76-8.38,17.35-15.06,28.76-20.03,11.41-4.97,24.64-7.45,39.7-7.45s28.06,2.48,39.48,7.45c11.41,4.97,21,11.65,28.76,20.03,7.76,8.38,13.62,17.74,17.59,28.06s5.94,20.84,5.94,31.56v5.12c0,9.63-1.9,19.57-5.71,29.81-3.8,10.25-9.51,19.76-17.12,28.53-7.61,8.78-17.15,15.84-28.64,21.19-11.49,5.36-24.92,8.03-40.29,8.03ZM1216.61,307.64c7.45,0,14.13-1.25,20.03-3.73,5.9-2.48,10.95-5.98,15.14-10.48s7.37-9.74,9.55-15.72c2.17-5.98,3.26-12.46,3.26-19.45,0-7.46-1.12-14.21-3.38-20.27-2.25-6.05-5.47-11.25-9.67-15.6-4.19-4.34-9.24-7.68-15.14-10.01-5.9-2.33-12.5-3.5-19.8-3.5s-14.13,1.17-20.03,3.5c-5.9,2.32-10.95,5.66-15.14,10.01-4.19,4.35-7.38,9.55-9.55,15.6-2.18,6.06-3.26,12.81-3.26,20.27,0,6.99,1.09,13.47,3.26,19.45,2.17,5.98,5.36,11.22,9.55,15.72s9.23,8,15.14,10.48c5.9,2.48,12.57,3.73,20.03,3.73Z"/>
  </g>
  <g>
    <path class="st0" d="M1556.29,228.41c-14.84,0-27.78-2.46-38.83-7.38-11.05-4.91-20.17-11.53-27.36-19.86-7.19-8.32-12.52-17.56-16.01-27.7-3.48-10.14-5.22-20.28-5.22-30.43v-4.99c0-10.45,1.74-20.66,5.22-30.65,3.49-9.99,8.75-19.07,15.79-27.24,7.03-8.17,15.81-14.68,26.33-19.53,10.52-4.84,22.67-7.26,36.44-7.26,14.99,0,28.23,2.76,39.74,8.28,11.5,5.53,20.74,13.17,27.7,22.93,6.96,9.76,10.97,21.08,12.03,33.94h-37.23c-.91-6.05-3.3-11.35-7.15-15.89-3.86-4.54-8.79-8.09-14.76-10.67s-12.75-3.86-20.32-3.86-13.74,1.29-19.41,3.86c-5.68,2.57-10.52,6.2-14.53,10.9s-7.04,10.26-9.08,16.69-3.07,13.51-3.07,21.22,1.1,15.33,3.3,21.91,5.41,12.26,9.65,17.02c4.23,4.77,9.49,8.44,15.78,11.02,6.28,2.57,13.28,3.86,21,3.86,10.29,0,19.22-2.12,26.79-6.36,7.56-4.24,13.01-9.84,16.35-16.8l-4.54,25.43v-39.51h34.28v35.42c-7.12,11.5-16.92,20.32-29.4,26.45-12.49,6.13-26.99,9.2-43.48,9.2ZM1551.52,164.62v-26.79h91.27v26.79h-91.27Z"/>
    <path class="st0" d="M1666.85,224.1V58.36h36.33v165.74h-36.33ZM1698.64,89.24v-30.88h70.84v30.88h-70.84ZM1698.64,155.31v-30.87h67.21v30.87h-67.21ZM1698.64,224.1v-30.87h72.42v30.87h-72.42Z"/>
    <path class="st0" d="M1858.25,228.41c-14.99,0-27.62-2.38-37.92-7.15-10.3-4.77-18.09-11.28-23.39-19.52s-7.94-17.75-7.94-28.5h36.1c0,4.24,1.17,8.18,3.52,11.81,2.34,3.63,5.94,6.55,10.78,8.74,4.84,2.19,11.12,3.3,18.85,3.3,6.96,0,12.79-.91,17.48-2.73,4.69-1.81,8.25-4.35,10.67-7.61,2.42-3.25,3.64-6.99,3.64-11.24,0-5.29-2.27-9.49-6.81-12.6s-11.88-5.11-22.03-6.02l-12.48-1.13c-16.5-1.37-29.67-6.51-39.51-15.44-9.84-8.93-14.75-20.74-14.75-35.42,0-10.59,2.53-19.75,7.6-27.47,5.07-7.71,12.15-13.66,21.23-17.82s19.83-6.24,32.24-6.24,24.18,2.23,33.49,6.7,16.46,10.74,21.46,18.84c5,8.1,7.49,17.6,7.49,28.5h-36.33c0-4.09-.98-7.84-2.95-11.24-1.97-3.41-4.88-6.17-8.74-8.28-3.86-2.12-8.67-3.18-14.42-3.18-5.45,0-10.03.91-13.74,2.73-3.71,1.81-6.47,4.27-8.29,7.38-1.81,3.1-2.72,6.47-2.72,10.1,0,4.69,1.66,8.78,4.99,12.26,3.33,3.49,8.78,5.53,16.35,6.13l12.72,1.14c12.1,1.06,22.78,3.67,32.01,7.83,9.23,4.17,16.46,9.84,21.68,17.03,5.22,7.19,7.84,15.93,7.84,26.22s-2.76,19.87-8.29,27.81c-5.52,7.95-13.36,14.12-23.49,18.5-10.14,4.39-22.26,6.58-36.33,6.58Z"/>
    <path class="st0" d="M1933.63,90.82v-32.47h130.55v32.47h-130.55ZM1980.17,224.1V86.28h37.24v137.82h-37.24Z"/>
    <path class="st0" d="M2057.14,224.1l54.72-165.74h60.16l56.77,165.74h-38.6l-45.86-140.09,11.8,4.77h-29.29l12.26-4.77-44.73,140.09h-37.23ZM2162.26,45.65c-4.69,0-8.74-.6-12.15-1.81-3.4-1.21-6.43-2.61-9.08-4.2-2.65-1.59-5.41-2.99-8.28-4.21-2.88-1.21-6.21-1.81-9.99-1.81-4.84,0-9.04.87-12.6,2.61-3.56,1.75-6.4,3.9-8.52,6.47l-5.44-24.52c2.57-3.18,6.05-5.86,10.44-8.06s9.76-3.3,16.12-3.3c4.84,0,8.93.61,12.26,1.81,3.33,1.21,6.36,2.61,9.08,4.2,2.73,1.59,5.52,2.99,8.4,4.21,2.87,1.21,6.2,1.81,9.99,1.81,4.84,0,9.04-.91,12.6-2.73s6.39-4.01,8.51-6.58l5.45,24.75c-2.57,3.18-6.05,5.87-10.44,8.06-4.4,2.2-9.84,3.3-16.35,3.3ZM2098.69,183.01l11.35-30.88h64.93l11.58,30.88h-87.86Z"/>
    <path class="st0" d="M2323,228.41c-14.98,0-28.04-2.61-39.17-7.83-11.12-5.22-20.32-12.11-27.59-20.66-7.27-8.55-12.67-17.83-16.23-27.81-3.55-9.99-5.33-19.61-5.33-28.84v-4.99c0-10.3,1.85-20.47,5.56-30.54,3.71-10.07,9.27-19.19,16.69-27.36,7.41-8.18,16.65-14.72,27.7-19.64,11.05-4.91,23.84-7.37,38.37-7.37s27.32,2.46,38.37,7.37c11.05,4.92,20.28,11.47,27.7,19.64,7.42,8.17,13.01,17.29,16.8,27.36,3.78,10.07,5.67,20.24,5.67,30.54v4.99c0,9.23-1.81,18.85-5.44,28.84-3.64,9.99-9.08,19.26-16.35,27.81-7.27,8.55-16.46,15.44-27.59,20.66-11.12,5.22-24.18,7.83-39.17,7.83ZM2323,193.67c7.87,0,14.94-1.36,21.23-4.09,6.28-2.73,11.66-6.51,16.12-11.35s7.83-10.44,10.1-16.8c2.27-6.36,3.41-13.17,3.41-20.43,0-7.71-1.18-14.79-3.52-21.22s-5.75-12.04-10.21-16.8-9.8-8.44-16.01-11.01c-6.21-2.57-13.25-3.86-21.12-3.86s-14.91,1.29-21.12,3.86c-6.2,2.57-11.54,6.24-16.01,11.01s-7.83,10.37-10.1,16.8-3.41,13.51-3.41,21.22c0,7.27,1.14,14.08,3.41,20.43,2.27,6.36,5.63,11.96,10.1,16.8s9.8,8.63,16.01,11.35,13.24,4.09,21.12,4.09Z"/>
  </g>
  <path class="st0" d="M1172.6,495.18H332.06c-134.33,0-243.61-109.28-243.61-243.61S197.73,7.96,332.06,7.96h1084.15v243.61c0,134.33-109.28,243.61-243.61,243.61ZM332.06,46.12c-113.28,0-205.45,92.17-205.45,205.45s92.17,205.45,205.45,205.45h840.54c113.28,0,205.45-92.17,205.45-205.45V46.12H332.06Z"/>
</svg>