<?xml version="1.0" encoding="UTF-8"?>
<svg id="Layer_1" xmlns="http://www.w3.org/2000/svg" version="1.1" viewBox="0 0 2500 502">
  <!-- Generator: Adobe Illustrator 29.7.1, SVG Export Plug-In . SVG Version: 2.1.1 Build 8)  -->
  <defs>
    <style>
      .st0 {
        fill: #636363;
      }
    </style>
  </defs>
  <g>
    <path class="st0" d="M644.44,203.77c11.29,5.99,20.2,14.96,26.76,26.93,6.54,11.97,9.82,26.53,9.82,43.69v109.4h-30.48v-104.99c0-18.51-4.57-32.68-13.72-42.5-9.14-9.82-21.51-14.73-37.09-14.73s-28.79,5.14-38.27,15.41c-9.48,10.28-14.23,25.12-14.23,44.54v102.28h-30.48v-104.99c0-18.51-4.57-32.68-13.72-42.5-9.14-9.82-21.51-14.73-37.09-14.73s-28.79,5.14-38.27,15.41c-9.48,10.28-14.23,25.12-14.23,44.54v102.28h-30.82v-185.6h30.82v26.76c6.1-9.71,14.28-17.16,24.56-22.35,10.27-5.19,21.62-7.79,34.04-7.79,15.58,0,29.35,3.5,41.32,10.5,11.96,7,20.88,17.27,26.76,30.82,5.19-13.09,13.77-23.25,25.74-30.48,11.96-7.22,25.28-10.84,39.96-10.84s27.32,3,38.61,8.98Z"/>
    <path class="st0" d="M765.19,374.98c-14.11-7.9-25.18-19.14-33.19-33.7-8.02-14.56-12.02-31.44-12.02-50.63s4.12-35.73,12.36-50.3c8.24-14.56,19.48-25.74,33.7-33.53,14.23-7.79,30.14-11.68,47.76-11.68s33.53,3.9,47.75,11.68c14.23,7.79,25.45,18.91,33.7,33.36,8.24,14.45,12.36,31.27,12.36,50.46s-4.23,36.07-12.7,50.63c-8.47,14.56-19.93,25.8-34.38,33.7-14.45,7.91-30.48,11.85-48.09,11.85s-33.14-3.95-47.25-11.85ZM843.59,351.95c9.71-5.19,17.55-12.98,23.54-23.37,5.98-10.38,8.97-23.03,8.97-37.93s-2.94-27.55-8.81-37.93c-5.87-10.38-13.55-18.12-23.03-23.2-9.48-5.08-19.76-7.62-30.82-7.62s-21.62,2.54-30.99,7.62c-9.37,5.08-16.88,12.82-22.52,23.2-5.65,10.39-8.47,23.03-8.47,37.93s2.76,27.89,8.3,38.27c5.53,10.39,12.92,18.12,22.18,23.2,9.26,5.08,19.42,7.62,30.48,7.62s21.45-2.59,31.16-7.79ZM846.98,143.32l-72.14,38.61v-23.03l72.14-42.34v26.76Z"/>
    <path class="st0" d="M1017.34,355.34l57.58-157.15h32.85l-72.82,185.6h-35.9l-72.82-185.6h33.19l57.92,157.15Z"/>
    <path class="st0" d="M1306.58,302.5h-148.35c1.13,18.29,7.39,32.57,18.8,42.84,11.4,10.28,25.23,15.41,41.49,15.41,13.32,0,24.44-3.1,33.36-9.31,8.92-6.21,15.18-14.51,18.8-24.89h33.19c-4.97,17.84-14.9,32.35-29.8,43.52-14.9,11.18-33.42,16.76-55.54,16.76-17.61,0-33.36-3.95-47.25-11.85-13.89-7.9-24.78-19.14-32.68-33.7-7.91-14.56-11.85-31.44-11.85-50.63s3.84-36.01,11.52-50.46c7.67-14.45,18.46-25.57,32.34-33.36,13.89-7.79,29.86-11.68,47.93-11.68s33.19,3.84,46.74,11.52c13.55,7.68,23.99,18.24,31.33,31.67,7.33,13.44,11.01,28.62,11.01,45.55,0,5.87-.34,12.08-1.02,18.63ZM1267.97,247.12c-5.2-8.47-12.25-14.9-21.17-19.3-8.92-4.4-18.8-6.61-29.63-6.61-15.58,0-28.85,4.97-39.79,14.9-10.96,9.94-17.22,23.71-18.8,41.32h117.18c0-11.74-2.6-21.85-7.79-30.31Z"/>
    <path class="st0" d="M1349.25,161.95c-4.06-4.06-6.1-9.03-6.1-14.9s2.03-10.84,6.1-14.9c4.06-4.06,9.03-6.1,14.9-6.1s10.44,2.03,14.39,6.1c3.95,4.06,5.93,9.03,5.93,14.9s-1.98,10.84-5.93,14.9c-3.95,4.06-8.75,6.1-14.39,6.1s-10.84-2.03-14.9-6.1ZM1379.05,198.18v185.6h-30.82v-185.6h30.82Z"/>
    <path class="st0" d="M1458.98,379.55c-11.29-4.85-20.21-11.63-26.76-20.32-6.55-8.69-10.16-18.68-10.84-29.97h31.84c.9,9.26,5.25,16.82,13.04,22.69,7.79,5.87,18,8.81,30.65,8.81,11.74,0,21-2.59,27.77-7.79,6.77-5.19,10.16-11.74,10.16-19.64s-3.62-14.17-10.84-18.12c-7.23-3.95-18.41-7.84-33.53-11.68-13.77-3.61-25.01-7.28-33.7-11.01-8.7-3.72-16.15-9.25-22.35-16.6-6.21-7.34-9.31-16.99-9.31-28.96,0-9.48,2.82-18.17,8.47-26.08,5.64-7.9,13.66-14.17,24.04-18.8,10.38-4.63,22.24-6.94,35.56-6.94,20.54,0,37.14,5.2,49.79,15.58,12.64,10.39,19.42,24.61,20.32,42.67h-30.82c-.68-9.71-4.57-17.49-11.69-23.37-7.11-5.87-16.65-8.81-28.62-8.81-11.07,0-19.87,2.37-26.42,7.11-6.55,4.74-9.82,10.95-9.82,18.63,0,6.1,1.97,11.12,5.92,15.07,3.95,3.95,8.92,7.11,14.9,9.48,5.98,2.37,14.28,5.03,24.89,7.96,13.32,3.61,24.16,7.17,32.51,10.67,8.35,3.5,15.52,8.75,21.51,15.75,5.98,7,9.09,16.15,9.31,27.43,0,10.16-2.82,19.31-8.47,27.43-5.65,8.13-13.61,14.51-23.88,19.14-10.28,4.63-22.07,6.94-35.39,6.94-14.23,0-26.98-2.43-38.27-7.28Z"/>
  </g>
  <g>
    <path class="st0" d="M1762.34,214.61c13.77,14.11,20.66,33.82,20.66,59.1v110.07h-47.42v-103.64c0-14.9-3.73-26.36-11.18-34.38-7.45-8.01-17.61-12.02-30.48-12.02s-23.43,4.01-30.99,12.02c-7.57,8.02-11.35,19.47-11.35,34.38v103.64h-47.42v-187.63h47.42v23.37c6.32-8.13,14.39-14.5,24.22-19.14,9.82-4.63,20.6-6.94,32.35-6.94,22.35,0,40.41,7.06,54.19,21.17Z"/>
    <path class="st0" d="M1862.59,374.81c-14.45-8.01-25.8-19.36-34.04-34.04-8.25-14.67-12.36-31.61-12.36-50.8s4.23-36.12,12.7-50.8c8.47-14.68,20.03-26.02,34.72-34.04,14.67-8.01,31.04-12.02,49.11-12.02s34.43,4.01,49.11,12.02c14.68,8.02,26.25,19.36,34.72,34.04,8.47,14.68,12.7,31.61,12.7,50.8s-4.35,36.13-13.04,50.8c-8.7,14.68-20.44,26.03-35.22,34.04-14.79,8.02-31.33,12.02-49.62,12.02s-34.32-4.01-48.77-12.02ZM1935.58,339.25c7.56-4.18,13.6-10.44,18.12-18.8,4.52-8.35,6.78-18.51,6.78-30.48,0-17.83-4.69-31.55-14.06-41.15-9.37-9.59-20.83-14.39-34.38-14.39s-24.89,4.8-34.04,14.39c-9.15,9.6-13.72,23.32-13.72,41.15s4.46,31.56,13.38,41.15c8.92,9.6,20.15,14.39,33.7,14.39,8.58,0,16.65-2.09,24.22-6.27Z"/>
    <path class="st0" d="M2115.42,201.91c9.82-5.64,21.05-8.47,33.7-8.47v49.79h-12.53c-14.9,0-26.14,3.5-33.7,10.5-7.57,7-11.35,19.19-11.35,36.58v93.48h-47.42v-187.63h47.42v29.13c6.1-9.93,14.06-17.72,23.88-23.37Z"/>
    <path class="st0" d="M2236.16,235.1v90.77c0,6.32,1.52,10.9,4.57,13.72,3.05,2.83,8.18,4.23,15.41,4.23h22.02v39.97h-29.81c-39.96,0-59.95-19.42-59.95-58.25v-90.43h-22.35v-38.95h22.35v-46.4h47.75v46.4h42v38.95h-42Z"/>
    <path class="st0" d="M2485.43,304.19h-137.17c1.13,13.55,5.87,24.16,14.23,31.84,8.35,7.68,18.63,11.52,30.82,11.52,17.61,0,30.14-7.56,37.59-22.69h51.14c-5.42,18.07-15.81,32.91-31.16,44.54-15.36,11.63-34.21,17.44-56.56,17.44-18.07,0-34.27-4.01-48.6-12.02-14.34-8.01-25.52-19.36-33.53-34.04-8.02-14.67-12.02-31.61-12.02-50.8s3.95-36.46,11.85-51.14c7.9-14.67,18.97-25.96,33.19-33.87,14.23-7.9,30.6-11.85,49.11-11.85s33.81,3.84,47.92,11.52c14.11,7.68,25.07,18.57,32.85,32.68,7.79,14.11,11.69,30.31,11.69,48.6,0,6.77-.45,12.87-1.36,18.29ZM2437.67,272.36c-.23-12.19-4.63-21.96-13.21-29.3-8.59-7.33-19.08-11.01-31.5-11.01-11.74,0-21.62,3.56-29.63,10.67-8.02,7.11-12.93,16.99-14.73,29.64h89.07Z"/>
  </g>
  <g>
    <path class="st0" d="M290.56,258.14c-7.93-51.46-43.14-94.8-91.88-113.1-29.73-11.17-62.48-11.18-92.21,0-48.91,18.32-84.18,61.78-92.04,113.4-.81,5.29-1.22,10.68-1.22,16.03-.02,28.49,11.06,55.28,31.19,75.44,10.12,10.13,21.91,17.97,34.76,23.27l-22.28,33.37c-3.5,5.24-2.09,12.33,3.15,15.83,1.95,1.3,4.15,1.92,6.33,1.92,3.68,0,7.3-1.78,9.5-5.08l26.37-39.5c5.76.95,11.63,1.47,17.58,1.47h65.53c5.42,0,10.88-.43,16.23-1.27.44-.07.87-.16,1.31-.24l26.4,39.53c2.2,3.29,5.82,5.08,9.5,5.08,2.18,0,4.38-.62,6.33-1.92,5.24-3.5,6.65-10.59,3.15-15.83l-22.32-33.43c17.96-7.39,33.6-19.58,45.35-35.66,16.81-23.01,23.65-51.18,19.27-79.31ZM252.87,323.99c-13.21,18.08-32.67,29.94-54.8,33.38-4.2.66-8.5.99-12.76,1h-65.49c-22.39-.01-43.44-8.75-59.26-24.59-15.83-15.84-24.53-36.9-24.52-59.31,0-4.2.32-8.43.96-12.59,6.62-43.47,36.31-80.05,77.49-95.48,12.28-4.61,25.18-6.92,38.08-6.92s25.8,2.31,38.08,6.92c41.03,15.41,70.68,51.89,77.36,95.23,3.44,22.13-1.94,44.27-15.14,62.35Z"/>
    <path class="st0" d="M218.09,274.08l-19.26,12.79c-13.75,9.16-29.75,14.01-46.24,14.03-16.52-.02-32.52-4.88-46.28-14.04l-19.25-12.79c-5.26-3.48-12.34-2.06-15.82,3.19-3.49,5.25-2.06,12.33,3.19,15.82l19.24,12.78c17.5,11.65,37.87,17.83,58.92,17.86,21.02-.03,41.39-6.21,58.88-17.85l19.25-12.79c5.25-3.49,6.68-10.57,3.19-15.82-3.49-5.25-10.57-6.67-15.82-3.19Z"/>
  </g>
  <path class="st0" d="M341.83,130.01c-22.01-8.14-39.36-25.5-47.5-47.5l-1.78-4.8-1.78,4.8c-8.14,22.01-25.5,39.36-47.5,47.5l-4.8,1.78,4.8,1.78c22.01,8.14,39.36,25.5,47.5,47.5l1.78,4.8,1.78-4.8c8.14-22.01,25.5-39.36,47.5-47.5l4.8-1.78-4.8-1.78Z"/>
</svg>