<?xml version="1.0" encoding="UTF-8"?>
<svg id="Layer_1" xmlns="http://www.w3.org/2000/svg" version="1.1" viewBox="0 0 2500 632.6">
  <!-- Generator: Adobe Illustrator 29.7.1, SVG Export Plug-In . SVG Version: 2.1.1 Build 8)  -->
  <defs>
    <style>
      .st0 {
        fill: #636363;
      }
    </style>
  </defs>
  <g>
    <path class="st0" d="M675.43,371.51v97.14h-27.25v-248.09h27.25v28.3c15.38-20.62,37.39-33.19,63.25-33.19,48.92,0,89.8,41.23,89.8,94.69s-40.88,93.64-89.8,93.64c-25.86,0-47.87-12.23-63.25-32.5ZM675.43,281.01v58.7c11.88,22.01,35.64,38.44,63.25,38.44,34.24,0,61.85-28.3,61.85-67.79s-27.6-68.84-61.85-68.84c-27.6,0-50.67,16.77-63.25,39.48Z"/>
    <path class="st0" d="M859.21,398.76v-24.46h70.93c28.3,0,39.48-15.02,39.48-32.85,0-15.03-9.08-29-38.78-29h-19.92c-30.75,0-52.41-18.52-52.41-45.77s21.66-46.12,52.41-46.12h76.87v24.46h-75.82c-18.17,0-26.56,9.43-26.56,21.66s8.74,21.31,26.56,21.31h20.27c44.38,0,64.29,24.81,64.29,53.81,0,30.75-19.92,56.95-64.64,56.95h-72.68Z"/>
    <path class="st0" d="M1030.07,398.76v-178.2h27.26v178.2h-27.26Z"/>
    <path class="st0" d="M1194.99,404c-54.86,0-97.14-42.28-97.14-94.69s42.28-93.64,97.14-93.64c40.88,0,76.17,23.06,88.75,61.85h-29c-9.78-21.31-32.15-35.99-59.75-35.99-40.18,0-69.19,29.7-69.19,67.79s29,68.84,69.19,68.84c27.95,0,49.97-14.33,59.75-35.64h29c-11.88,38.09-48.22,61.5-88.75,61.5Z"/>
    <path class="st0" d="M1406.04,404c-55.21,0-97.84-42.28-97.84-94.69s42.63-93.64,97.84-93.64,97.84,41.93,97.84,93.64-42.28,94.69-97.84,94.69ZM1406.04,378.15c40.53,0,69.88-30.05,69.88-68.84s-29.35-67.79-69.88-67.79-69.88,29.7-69.88,67.79,29.35,68.84,69.88,68.84Z"/>
    <path class="st0" d="M1690.46,370.81c-15.37,20.62-37.39,33.2-63.24,33.2-48.92,0-89.8-41.23-89.8-94.69s40.88-93.64,89.8-93.64c25.86,0,47.87,12.23,63.24,32.5v-27.6h27.25v178.2h-27.25v-27.95ZM1627.21,378.15c27.6,0,50.67-16.77,63.24-39.48v-58.7c-11.88-22.01-35.64-38.44-63.24-38.44-34.24,0-61.85,28.3-61.85,67.79s27.6,68.84,61.85,68.84Z"/>
    <path class="st0" d="M1889.62,468.65h-103.43v-24.46h105.18c11.53,0,18.52-5.94,18.52-18.87v-53.81c-15.37,20.27-37.39,32.5-63.24,32.5-48.92,0-89.8-40.88-89.8-93.64s40.88-94.69,89.8-94.69c25.86,0,47.87,12.58,63.24,33.19v-28.3h27.25v206.16c0,24.46-15.03,41.93-47.52,41.93ZM1846.64,378.15c27.6,0,51.36-16.42,63.24-38.44v-58.7c-12.58-22.71-35.64-39.48-63.24-39.48-34.24,0-61.85,28.65-61.85,68.84s27.6,67.79,61.85,67.79Z"/>
    <path class="st0" d="M2074.1,404c-55.21,0-97.84-42.28-97.84-94.69s42.63-93.64,97.84-93.64,97.84,41.93,97.84,93.64-42.28,94.69-97.84,94.69ZM2074.1,378.15c40.53,0,69.88-30.05,69.88-68.84s-29.35-67.79-69.88-67.79-69.88,29.7-69.88,67.79,29.35,68.84,69.88,68.84Z"/>
    <path class="st0" d="M2238.32,272.97v125.79h-27.25v-178.2h27.25v19.92c14.68-13.98,35.29-24.81,61.85-24.81v29.35c-30.75,0-52.06,14.33-61.85,27.95Z"/>
    <path class="st0" d="M2461.59,370.81c-15.37,20.62-37.39,33.2-63.24,33.2-48.92,0-89.8-41.23-89.8-94.69s40.88-93.64,89.8-93.64c25.86,0,47.87,12.23,63.24,32.5v-27.6h27.25v178.2h-27.25v-27.95ZM2398.35,378.15c27.6,0,50.67-16.77,63.24-39.48v-58.7c-11.88-22.01-35.64-38.44-63.24-38.44-34.24,0-61.85,28.3-61.85,67.79s27.6,68.84,61.85,68.84Z"/>
  </g>
  <g>
    <path class="st0" d="M461.56,97.56l-101.74,101.74c-13.7,13.72-30.76,22.89-49.34,26.72V39.74c-6.85-.5-13.78-.75-20.76-.75s-13.91.26-20.76.75v186c-18.07-3.99-34.64-13.03-48.03-26.43l-102.34-102.32c-11.02,8.48-21.39,17.73-31.03,27.7l104.01,104c26.39,26.39,61.48,40.92,98.81,40.92s72.42-14.53,98.82-40.92l103.33-103.33c-9.62-10-19.97-19.28-30.96-27.79Z"/>
    <path class="st0" d="M428.72,319.41l139.76-36.91c-1.87-13.91-4.74-27.5-8.58-40.68l-141.79,37.44c-74.5,19.66-119.11,96.28-99.43,170.79l37.92,143.56c13.59-3.34,26.8-7.63,39.55-12.86l-37.31-141.31c-5.06-19.17-4.07-38.54,1.79-56.06l162.19,94.43c7.73-11.44,14.66-23.46,20.67-36.02l-161.71-94.16c12.24-13.26,28.26-23.29,46.94-28.22Z"/>
    <path class="st0" d="M247.91,346.86c-18.26-32.55-48.09-56.06-84.03-66.17L19.98,240.17c-3.91,13.18-6.88,26.75-8.83,40.65l141.47,39.84c18.67,5.27,35.01,15.67,47.44,30l-163.81,91.81c6.05,12.54,13,24.55,20.78,35.97l163.1-91.41c5.35,17.7,5.56,36.58.43,54.8l-38.94,138.24c12.71,5.3,25.89,9.7,39.47,13.1l39.44-140.08c10.13-35.94,5.64-73.65-12.6-106.22Z"/>
  </g>
</svg>