<svg width="248" height="45" viewBox="0 0 248 45" fill="none" xmlns="http://www.w3.org/2000/svg">
<g clip-path="url(#clip0_1_71)">
<path d="M49.2286 10.929C46.7914 8.51455 43.8447 7.30731 40.3694 7.30731C36.8941 7.30731 33.9861 8.51455 31.5489 10.929C29.0987 13.3243 27.8801 16.237 27.8801 19.648C27.8801 20.44 28.0993 21.8261 28.2025 22.401C28.2283 22.5543 28.3637 22.6629 28.5184 22.6629H34.9662L29.0665 28.5011C28.815 28.7502 28.815 29.1526 29.0665 29.4017L30.4592 30.7814C30.7107 31.0305 31.1169 31.0305 31.3683 30.7814L37.2487 24.9688V31.3627C37.2487 31.516 37.3583 31.6501 37.513 31.6757C38.1127 31.7779 39.5699 32.0078 40.3565 32.0078C43.8318 32.0078 46.7849 30.8006 49.2157 28.3861C51.653 25.9588 52.8716 23.0525 52.8716 19.6352C52.8716 16.2179 51.653 13.3116 49.2157 10.9163L49.2286 10.929ZM48.1518 27.428C46.656 28.9226 44.9409 29.8999 43.0001 30.3471C42.207 30.5387 41.3752 30.6409 40.5048 30.6473V20.0759C40.5048 19.7246 40.2147 19.4372 39.86 19.4372H29.3889C29.3889 19.0987 29.4082 18.7601 29.4405 18.4407C29.4533 18.3833 29.4533 18.3258 29.4727 18.2683C29.5178 17.8467 29.5887 17.4251 29.6919 17.0355C30.1304 15.1001 31.0975 13.3882 32.5805 11.9063C34.7212 9.77289 37.3196 8.6934 40.3565 8.6934C43.3934 8.6934 45.9918 9.7665 48.1454 11.9063C50.2989 14.0461 51.3886 16.6331 51.3886 19.6671C51.3886 22.7012 50.3054 25.2945 48.1454 27.428H48.1518Z" fill="white"/>
<path d="M24.25 7.99714V28.2583C24.25 31.5862 23.1152 34.1987 20.852 36.0766C18.5889 37.9609 15.6745 38.8999 12.1153 38.8999C9.29766 38.8999 6.84107 38.1206 4.75844 36.5557C2.67582 34.9908 1.24442 32.9148 0.477134 30.3215H2.02459C2.75319 32.5252 4.0105 34.2754 5.80943 35.572C7.6019 36.8687 9.70387 37.5202 12.1153 37.5202C15.2683 37.5202 17.8345 36.709 19.8139 35.093C21.7934 33.4705 22.7799 31.1966 22.7799 28.2583V24.6366C21.7483 26.5656 20.2846 28.1114 18.4019 29.2675C16.5127 30.4301 14.4236 31.0113 12.1153 31.0113C8.7496 31.0113 5.89325 29.8488 3.53337 27.5174C1.17994 25.1923 0 22.3882 0 19.1178C0 15.8474 1.17994 13.056 3.53337 10.7565C5.89325 8.45704 8.7496 7.3009 12.1153 7.3009C14.4172 7.3009 16.5127 7.88217 18.4019 9.04469C20.2911 10.2072 21.7483 11.753 22.7799 13.6756V7.99075H24.25V7.99714ZM22.7799 19.1114C22.7799 16.237 21.7418 13.7842 19.6592 11.7466C17.583 9.70899 15.0684 8.68699 12.1153 8.68699C9.16226 8.68699 6.66053 9.70899 4.59725 11.7466C2.53397 13.7842 1.50877 16.2434 1.50877 19.1114C1.50877 21.9794 2.54042 24.5216 4.59725 26.5656C6.65408 28.6096 9.16226 29.6316 12.1153 29.6316C15.0684 29.6316 17.583 28.6096 19.6592 26.5656C21.7354 24.5216 22.7799 22.0369 22.7799 19.1114Z" fill="white"/>
<path d="M61.9823 24.6941C61.9823 25.6139 62.2402 26.3038 62.756 26.7637C63.2718 27.2236 63.9359 27.4535 64.7419 27.4535H66.8697V30.2257H64.7419C63.1106 30.2257 61.7437 29.7338 60.6282 28.7502C59.5128 27.7665 58.9583 26.4123 58.9583 24.6941V9.68345H56.1986V6.88572H58.9583V1.61603H61.9758V6.89211H66.8632V9.68984H61.9758V24.7069L61.9823 24.6941Z" fill="white"/>
<path d="M72.1955 27.2811C69.7131 24.8602 68.4687 21.9475 68.4687 18.5366C68.4687 15.1256 69.7196 12.2193 72.2149 9.81121C74.7101 7.40312 77.6955 6.20227 81.1643 6.20227C84.6332 6.20227 87.6508 7.40312 90.1332 9.81121C92.6156 12.2193 93.86 15.1256 93.86 18.5366C93.86 21.9475 92.6156 24.8602 90.1332 27.2811C87.6508 29.7019 84.659 30.9092 81.1643 30.9092C77.6697 30.9092 74.6779 29.7019 72.1955 27.2811ZM87.9796 25.3584C89.8366 23.4741 90.7586 21.2001 90.7586 18.5429C90.7586 15.8857 89.8301 13.6182 87.9796 11.753C86.1227 9.88786 83.8531 8.96167 81.1643 8.96167C78.4756 8.96167 76.2705 9.90064 74.3878 11.7786C72.505 13.6565 71.5636 15.9113 71.5636 18.5493C71.5636 21.1874 72.4986 23.4869 74.362 25.3648C76.2318 27.2491 78.495 28.1881 81.1579 28.1881C83.8208 28.1881 86.1162 27.2491 87.9732 25.3648L87.9796 25.3584Z" fill="white"/>
<path d="M99.6307 30.2257V6.88571H105.408V10.3094H105.485C106.981 7.56918 108.922 6.19586 111.308 6.19586C112.913 6.19586 114.248 6.61105 115.331 7.44781C116.408 8.27819 117.22 9.3449 117.762 10.648C118.278 9.49182 119.155 8.46343 120.392 7.5564C121.63 6.64938 123.004 6.19586 124.513 6.19586C127.253 6.19586 129.419 7.0454 131.005 8.7317C132.592 10.4244 133.391 12.6983 133.391 15.56V30.2193H127.614V15.4578C127.614 14.3016 127.221 13.3307 126.434 12.545C125.647 11.7594 124.667 11.3634 123.507 11.3634C122.346 11.3634 121.398 11.7594 120.599 12.545C119.799 13.3307 119.4 14.3016 119.4 15.4578V30.2193H113.622V15.4578C113.622 14.3016 113.229 13.3307 112.449 12.545C111.669 11.7594 110.695 11.3634 109.528 11.3634C108.361 11.3634 107.42 11.7594 106.62 12.545C105.821 13.3307 105.421 14.3016 105.421 15.4578V30.2193H99.6436L99.6307 30.2257Z" fill="white"/>
<path d="M157.867 26.489H157.789C157.035 27.7218 155.991 28.7693 154.662 29.6252C153.334 30.4812 151.761 30.9155 149.943 30.9155C146.474 30.9155 143.521 29.7338 141.096 27.3641C138.665 24.9943 137.453 22.056 137.453 18.5365C137.453 15.017 138.665 12.1171 141.096 9.74732C143.527 7.37755 146.474 6.19586 149.943 6.19586C153.147 6.19586 155.765 7.5564 157.789 10.2711H157.867V6.88571H163.644V30.2257H157.867V26.489ZM155.771 13.4776C154.372 12.0724 152.676 11.3697 150.678 11.3697C148.679 11.3697 146.996 12.0724 145.584 13.484C144.172 14.8956 143.469 16.5756 143.469 18.5301C143.469 20.4847 144.172 22.2285 145.584 23.6401C146.996 25.0518 148.692 25.7544 150.678 25.7544C152.663 25.7544 154.391 25.0518 155.784 23.6401C157.177 22.2285 157.867 20.5294 157.867 18.5301C157.867 16.5309 157.17 14.8765 155.771 13.4712V13.4776Z" fill="white"/>
<path d="M168.506 6.88571H174.283V10.1114H174.36C175.908 7.49891 177.9 6.19586 180.337 6.19586H180.911V12.0021H179.48C178.1 12.0021 176.92 12.4684 175.927 13.401C174.934 14.3335 174.386 15.4833 174.276 16.8438V30.2257H168.499V6.88571H168.506Z" fill="white"/>
<path d="M207.276 6.88574L196.805 17.7317L207.276 30.2257H200.029L192.956 21.6856L190.434 24.4194V30.2257H184.657V0H190.434V16.5309L199.571 6.88574H207.276Z" fill="white"/>
<path d="M232.932 21.0788H213.924C214.252 22.4137 215.039 23.5635 216.264 24.5216C217.496 25.4798 218.914 25.9588 220.513 25.9588C221.68 25.9588 222.718 25.6969 223.64 25.1732C224.562 24.6494 225.278 23.9978 225.794 23.225H232.074C231.242 25.5628 229.766 27.4279 227.644 28.8204C225.523 30.2193 223.15 30.9155 220.513 30.9155C216.967 30.9155 213.949 29.7274 211.467 27.3449C208.985 24.9624 207.74 22.0305 207.74 18.5365C207.74 15.0426 208.991 12.1171 211.486 9.74732C213.982 7.37755 217.019 6.19586 220.597 6.19586C224.176 6.19586 227.077 7.39033 229.547 9.78564C232.016 12.181 233.254 15.0937 233.254 18.5301C233.254 19.2775 233.151 20.127 232.938 21.066L232.932 21.0788ZM227.071 16.2754C226.768 14.7934 226.039 13.5479 224.885 12.545C223.731 11.5422 222.306 11.0376 220.597 11.0376C218.888 11.0376 217.47 11.5422 216.264 12.545C215.058 13.5479 214.304 14.7934 214.001 16.2754H227.071Z" fill="white"/>
<path d="M236.065 11.4911V6.88572H238.193V1.61603H243.97V6.89211H248V11.4975H243.97V23.736C243.97 24.1448 244.106 24.4833 244.376 24.7516C244.647 25.0199 244.97 25.154 245.337 25.154H248V30.2321H245.337C243.19 30.2321 241.462 29.6061 240.153 28.3605C238.844 27.115 238.187 25.4414 238.187 23.3399V11.4911H236.059H236.065Z" fill="white"/>
<path d="M200.364 44.093C199.822 44.5657 199.145 44.802 198.346 44.802H194.161V36.0128H198.146C198.907 36.0128 199.532 36.23 200.035 36.658C200.538 37.0859 200.783 37.6672 200.783 38.4081C200.783 38.7339 200.719 39.0213 200.583 39.2704C200.448 39.5196 200.312 39.692 200.177 39.7942C200.042 39.8964 199.874 39.9986 199.668 40.1136C200.673 40.5032 201.183 41.2059 201.183 42.2215C201.183 43.0008 200.912 43.6331 200.37 44.1058L200.364 44.093ZM195.838 39.5132H198.14C198.385 39.5132 198.591 39.411 198.765 39.213C198.939 39.0149 199.029 38.7786 199.029 38.5103C199.029 38.2421 198.945 37.9993 198.771 37.7949C198.597 37.5905 198.391 37.4947 198.14 37.4947H195.838V39.5196V39.5132ZM199.12 41.2889C198.913 41.0526 198.655 40.9376 198.346 40.9376H195.838V43.3265H198.346C198.655 43.3265 198.913 43.2115 199.12 42.9752C199.326 42.7389 199.429 42.4578 199.429 42.132C199.429 41.8063 199.326 41.5252 199.12 41.2889Z" fill="white"/>
<path d="M211.261 40.6629C210.932 41.1484 210.487 41.5061 209.939 41.736L211.512 44.7956H209.649L208.237 42.0107H206.418V44.7956H204.736V36.0064H208.636C209.5 36.0064 210.242 36.2938 210.848 36.8687C211.454 37.4436 211.757 38.1526 211.757 39.0085C211.757 39.6281 211.59 40.1775 211.261 40.6629ZM209.604 37.9354C209.333 37.6352 209.01 37.4883 208.636 37.4883H206.412V40.5352H208.636C209.017 40.5352 209.339 40.3882 209.604 40.088C209.868 39.7878 210.003 39.4301 210.003 39.0085C210.003 38.587 209.868 38.2293 209.604 37.9291V37.9354Z" fill="white"/>
<path d="M220.3 43.2052H216.883L216.374 44.802H214.568L217.689 36.0128H219.514L222.635 44.802H220.829L220.307 43.2052H220.3ZM217.354 41.7296H219.823L218.637 38.0313H218.547L217.354 41.7296Z" fill="white"/>
<path d="M230.417 38.4592C230.417 38.1207 230.275 37.8396 229.985 37.6161C229.695 37.3925 229.347 37.2775 228.928 37.2775C228.508 37.2775 228.154 37.3669 227.915 37.5458C227.677 37.7246 227.561 37.9738 227.561 38.2931C227.561 38.5678 227.644 38.7914 227.819 38.9638C227.993 39.1363 228.218 39.264 228.496 39.3471C228.773 39.4301 229.082 39.5004 229.418 39.5642C229.753 39.6281 230.088 39.7112 230.423 39.8134C230.759 39.9156 231.068 40.0561 231.345 40.2285C231.629 40.401 231.855 40.6565 232.029 41.0014C232.203 41.3464 232.287 41.7679 232.287 42.2598C232.287 43.1029 231.971 43.7672 231.345 44.2655C230.72 44.7573 229.914 45.0064 228.928 45.0064C227.941 45.0064 227.161 44.7509 226.555 44.2399C225.955 43.7289 225.652 43.0327 225.652 42.1576H227.309C227.309 42.5536 227.457 42.8858 227.76 43.1476C228.064 43.4095 228.45 43.5437 228.928 43.5437C229.405 43.5437 229.798 43.4223 230.095 43.186C230.391 42.9496 230.539 42.643 230.539 42.2662C230.539 41.9851 230.456 41.7552 230.282 41.5763C230.107 41.3975 229.882 41.2633 229.598 41.1867C229.314 41.1036 229.011 41.0334 228.676 40.9695C228.341 40.9056 228.006 40.8226 227.67 40.7204C227.335 40.6182 227.025 40.484 226.748 40.318C226.471 40.1519 226.245 39.8964 226.071 39.5515C225.897 39.2129 225.813 38.7914 225.813 38.2995C225.813 37.5266 226.11 36.9198 226.697 36.4791C227.283 36.0383 228.031 35.8212 228.934 35.8212C229.837 35.8212 230.61 36.0575 231.204 36.5238C231.79 36.9901 232.087 37.6416 232.087 38.472H230.43L230.417 38.4592Z" fill="white"/>
<path d="M235.833 36.0128H237.516V44.802H235.833V36.0128Z" fill="white"/>
<path d="M247.4 44.802H241.294V36.0128H242.977V43.3265H247.4V44.802Z" fill="white"/>
</g>
<defs>
<clipPath id="clip0_1_71">
<rect width="248" height="45" fill="white"/>
</clipPath>
</defs>
</svg>
